<svg xmlns="http://www.w3.org/2000/svg" xmlns:xlink="http://www.w3.org/1999/xlink" viewBox="0 0 670.75 420"><defs><style>.cls-1{fill:#fdede2;}.cls-1,.cls-10,.cls-11,.cls-12,.cls-13,.cls-14,.cls-15,.cls-16,.cls-17,.cls-18,.cls-19,.cls-2,.cls-20,.cls-21,.cls-22,.cls-23,.cls-24,.cls-25,.cls-26,.cls-27,.cls-28,.cls-29,.cls-3,.cls-4,.cls-8,.cls-9{fill-rule:evenodd;}.cls-2,.cls-5{fill:#e3b19b;}.cls-3,.cls-6{fill:#fce4d6;}.cls-4,.cls-7{fill:#fff;}.cls-8{fill:url(#GradientFill_1);}.cls-9{fill:#f1d3c4;}.cls-10{fill:#fdf1e8;}.cls-11{fill:#e9695b;}.cls-12{fill:#503621;}.cls-13{fill:#1a1a18;}.cls-14{fill:#302d28;}.cls-15{fill:#674834;}.cls-16{fill:#8e6b56;}.cls-17{fill:#f5ac83;}.cls-18{fill:#ee9073;}.cls-19{fill:#362a25;}.cls-20{fill:#f9eae0;}.cls-21{fill:#d64c47;}.cls-22{fill:#b56b41;}.cls-23{fill:#ed7862;}.cls-24{fill:#d58750;}.cls-25{fill:#472e17;}.cls-26{fill:#342000;}.cls-27{fill:#f18a00;}.cls-28{fill:#fcc100;}.cls-29{fill:#8b472d;}</style><linearGradient id="GradientFill_1" x1="244.13" y1="117.11" x2="244.13" y2="24.54" gradientUnits="userSpaceOnUse"><stop offset="0" stop-color="#fdede2"/><stop offset="1" stop-color="#fff"/></linearGradient></defs><title>Asset 1</title><g id="Layer_2" data-name="Layer 2"><g id="OBJECTS"><path class="cls-1" d="M537.4,293.7h59.44A58.34,58.34,0,0,1,655,351.87h0A58.34,58.34,0,0,1,596.84,410H94.19C42.39,410,0,367.65,0,315.85H0c0-51.81,42.39-94.2,94.19-94.2h0A39.94,39.94,0,0,0,134,181.83h0A39.94,39.94,0,0,0,94.19,142H46.26A41.54,41.54,0,0,1,4.85,100.59h0A41.54,41.54,0,0,1,46.26,59.18h88.27a16.16,16.16,0,0,0,16.12-16.12h0a16.17,16.17,0,0,0-16.12-16.12H110.79A11.16,11.16,0,0,1,99.66,15.82h0A11.16,11.16,0,0,1,110.79,4.69H166.3c14.76,0,24.09,17.44,61.39,17.44H358.57a14.56,14.56,0,0,1,14.52,14.52h0a14.56,14.56,0,0,1-14.52,14.52h-17a21.09,21.09,0,0,0-21,21h0a21.09,21.09,0,0,0,21,21h28.14c56.65,0,64.66,14.81,74.58,44.26s61.46,31.82,61.46,31.82H541a31.8,31.8,0,0,1,31.7,31.7h0a31.79,31.79,0,0,1-31.7,31.7H537.4a30.58,30.58,0,0,0-30.49,30.49h0A30.58,30.58,0,0,0,537.4,293.7ZM79.56,26.94A11.13,11.13,0,1,0,68.44,15.82,11.12,11.12,0,0,0,79.56,26.94Z"/><path class="cls-2" d="M321.24,77.42H286V200.08H402.56V95.75c-8.65-1.67-19.36-2.51-32.81-2.51H341.61A21.11,21.11,0,0,1,321.24,77.42Z"/><path class="cls-3" d="M320.86,75.59H283.27V198H399.82V95.26a186.61,186.61,0,0,0-30.07-2H341.61A21.1,21.1,0,0,1,320.86,75.59Z"/><path class="cls-4" d="M390,94V188.1H293.12V85.45H325.3a21,21,0,0,0,16.31,7.79h28.14C377.32,93.24,384,93.51,390,94Z"/><rect class="cls-5" x="144.26" y="77.42" width="116.55" height="95.03"/><rect class="cls-6" x="141.52" y="75.59" width="116.55" height="95.03"/><rect class="cls-7" x="151.37" y="85.45" width="96.85" height="75.33"/><path class="cls-8" d="M132.9,192.4a39.32,39.32,0,0,0,1.44-10.57h0a39.55,39.55,0,0,0-2.47-13.77l68.68-115h72.62L356.39,192.4Z"/><polygon class="cls-2" points="277.13 53.08 195.95 53.08 236.54 29.16 277.13 53.08"/><path class="cls-2" d="M196.27,50.74h80.54a2.34,2.34,0,0,1,2.34,2.34h0a2.34,2.34,0,0,1-2.34,2.33H196.27a2.34,2.34,0,0,1-2.33-2.33h0A2.34,2.34,0,0,1,196.27,50.74Z"/><rect class="cls-5" x="234.66" y="22.13" width="3.77" height="11.74"/><path class="cls-4" d="M236.54,51.26c21,0,37.92,1.86,37.92,4.17s-17,4.17-37.92,4.17-37.92-1.87-37.92-4.17S215.6,51.26,236.54,51.26Z"/><path class="cls-2" d="M110.29,88.71a1.13,1.13,0,0,1,2.26,0v2.66h2.66a1.13,1.13,0,1,1,0,2.26h-2.66v2.66a1.13,1.13,0,0,1-2.26,0V93.63h-2.66a1.13,1.13,0,0,1,0-2.26h2.66Z"/><path class="cls-2" d="M75.28,95.93a6.59,6.59,0,1,0,1.93,4.66,6.53,6.53,0,0,0-1.93-4.66Zm-1.42-6.54a12.07,12.07,0,0,1,2.58,1.1,12.28,12.28,0,0,1,2.27,1.71.39.39,0,0,0,.48.06l3.06-1.77h0a.79.79,0,0,1,.56-.06.73.73,0,0,1,.46.35v0l2.16,3.73a.79.79,0,0,1,.07.58.73.73,0,0,1-.35.46l0,0-3,1.75a.41.41,0,0,0-.19.45h0a12.2,12.2,0,0,1,.26,1.39,12.64,12.64,0,0,1,0,2.84,12.2,12.2,0,0,1-.26,1.39.4.4,0,0,0,.21.46l3,1.76h0a.73.73,0,0,1,.35.46.79.79,0,0,1-.07.58l-2.17,3.75h0a.73.73,0,0,1-.46.35.79.79,0,0,1-.58-.07h0l-3-1.76a.41.41,0,0,0-.48.06,12.28,12.28,0,0,1-2.27,1.71,11.74,11.74,0,0,1-2.6,1.1.41.41,0,0,0-.3.39v3.54a.75.75,0,0,1-.75.75H68.45a.76.76,0,0,1-.54-.22.79.79,0,0,1-.22-.53v-3.54a.4.4,0,0,0-.31-.39A11.67,11.67,0,0,1,62.53,109a.4.4,0,0,0-.5,0L59,110.69a.76.76,0,0,1-.57.07.73.73,0,0,1-.46-.35l0,0-2.15-3.74h0a.72.72,0,0,1-.08-.57.77.77,0,0,1,.35-.46l3.06-1.77a.42.42,0,0,0,.2-.45h0a10.35,10.35,0,0,1-.26-1.39,11.25,11.25,0,0,1,0-2.84,10.35,10.35,0,0,1,.26-1.39.41.41,0,0,0-.22-.46l-3-1.76a.77.77,0,0,1-.35-.46.72.72,0,0,1,.08-.57v0l2.15-3.73h0a.78.78,0,0,1,.47-.35.76.76,0,0,1,.57.07h0l3.07,1.77a.4.4,0,0,0,.49-.07,11.84,11.84,0,0,1,2.26-1.7,11.11,11.11,0,0,1,2.6-1.1.4.4,0,0,0,.29-.39V85.46a.79.79,0,0,1,.22-.53.76.76,0,0,1,.54-.22h4.34a.75.75,0,0,1,.75.75V89A.41.41,0,0,0,73.86,89.39Z"/><path class="cls-2" d="M647.44,214.16a15.51,15.51,0,1,0,3.37,5,15.56,15.56,0,0,0-3.37-5Zm-5.59-2a14.11,14.11,0,0,1,7.63,18.42,14.21,14.21,0,0,1-3.06,4.58,14.09,14.09,0,0,1-19.93,0,14.21,14.21,0,0,1-3.06-4.58,14.11,14.11,0,0,1,0-10.78,14.14,14.14,0,0,1,7.63-7.64,14.26,14.26,0,0,1,10.79,0Zm1.72-11.43a25,25,0,0,1,2.86,1,24.29,24.29,0,0,1,2.75,1.37,26.43,26.43,0,0,1,2.59,1.72,25.37,25.37,0,0,1,2.36,2,1.68,1.68,0,0,0,.93.44,1.59,1.59,0,0,0,1-.2c2.28-1.32,4.68-2.63,6.91-4a1,1,0,0,1,.34-.1,1.22,1.22,0,0,1,.38,0,1,1,0,0,1,.35.17.89.89,0,0,1,.25.29c1.66,2.51,3.33,5.76,4.87,8.43a.85.85,0,0,1,.12.36.86.86,0,0,1,0,.39.88.88,0,0,1-.17.35.84.84,0,0,1-.28.25c-2.06,1.36-4.7,2.72-6.87,4a1.65,1.65,0,0,0-.69.77,1.46,1.46,0,0,0-.1.34l-.14,0,.15.64c.13.51.24,1,.33,1.51s.17,1,.23,1.53.11,1,.14,1.55,0,1,0,1.56,0,1.06,0,1.56-.07,1-.14,1.55-.14,1-.23,1.53-.2,1-.33,1.51a1.63,1.63,0,0,0,.11,1.07,1.6,1.6,0,0,0,.73.77l6.09,3.51h0l.72.42a.84.84,0,0,1,.28.25.88.88,0,0,1,.17.35.86.86,0,0,1,0,.39.81.81,0,0,1-.12.36l-4.5,7.81h0l-.36.64a1,1,0,0,1-.25.28,1,1,0,0,1-.35.17.86.86,0,0,1-.39,0,.81.81,0,0,1-.36-.12c-2.18-1.37-4.64-2.68-6.89-4a1.61,1.61,0,0,0-1.93.23h0a25.37,25.37,0,0,1-2.36,2,27.68,27.68,0,0,1-2.59,1.72,26.47,26.47,0,0,1-2.77,1.38,25.7,25.7,0,0,1-2.91,1,1.64,1.64,0,0,0-.86.58,1.73,1.73,0,0,0-.33,1v7.94a.9.9,0,0,1-.07.37,1.07,1.07,0,0,1-.54.54,1.11,1.11,0,0,1-.37.07h-9.75a1.11,1.11,0,0,1-.37-.07,1.07,1.07,0,0,1-.54-.54,1.11,1.11,0,0,1-.07-.37v-7.94a1.63,1.63,0,0,0-.35-1,1.59,1.59,0,0,0-.9-.58,24.48,24.48,0,0,1-2.87-1,24.55,24.55,0,0,1-5.33-3.09,24.26,24.26,0,0,1-2.37-2,1.73,1.73,0,0,0-1-.45,1.66,1.66,0,0,0-1,.27L610,247.21a.85.85,0,0,1-.36.12.91.91,0,0,1-.4,0,1,1,0,0,1-.35-.17,1.14,1.14,0,0,1-.25-.28c-1.61-2.82-3.25-5.63-4.87-8.44a1.27,1.27,0,0,1-.12-.36.86.86,0,0,1,0-.39.88.88,0,0,1,.17-.35.84.84,0,0,1,.28-.25l6.88-4a1.63,1.63,0,0,0,.68-.77,1.34,1.34,0,0,0,.09-.26l.18,0-.18-.73c-.13-.5-.24-1-.33-1.51s-.17-1-.23-1.53-.11-1-.14-1.55,0-1,0-1.56,0-1.06,0-1.56.08-1,.14-1.55.14-1.05.23-1.53.2-1,.33-1.51a1.62,1.62,0,0,0-.11-1.07,1.54,1.54,0,0,0-.73-.76l-6.81-3.94a1,1,0,0,1-.28-.25.88.88,0,0,1-.17-.35.86.86,0,0,1,0-.39,1.27,1.27,0,0,1,.12-.36c1.66-2.47,3.33-5.77,4.87-8.43a1,1,0,0,1,.6-.46.91.91,0,0,1,.4,0,1,1,0,0,1,.36.12l6.88,4a1.57,1.57,0,0,0,1,.21,1.71,1.71,0,0,0,.93-.46,26.26,26.26,0,0,1,2.35-2,25.77,25.77,0,0,1,2.59-1.71,26.31,26.31,0,0,1,2.76-1.38,27.2,27.2,0,0,1,2.92-1,1.65,1.65,0,0,0,.85-.58,1.63,1.63,0,0,0,.33-1v-7.95a1.11,1.11,0,0,1,.07-.37,1.07,1.07,0,0,1,.54-.54,1.11,1.11,0,0,1,.37-.07h9.75a1.11,1.11,0,0,1,.37.07,1,1,0,0,1,.32.22,1,1,0,0,1,.29.69v7.95a1.58,1.58,0,0,0,.35,1,1.62,1.62,0,0,0,.91.58Zm3.42-.3a28.16,28.16,0,0,1,2.91,1.45,26.82,26.82,0,0,1,5.23,3.95.22.22,0,0,0,.11.05l.12,0,6.94-4a2.47,2.47,0,0,1,.87-.28,2.53,2.53,0,0,1,.91.07,2.41,2.41,0,0,1,.85.42,2.37,2.37,0,0,1,.62.71c1.68,2.71,3.27,5.66,4.87,8.43a2.3,2.3,0,0,1,.31.9,2.47,2.47,0,0,1-.07.94,2.26,2.26,0,0,1-.42.85,2.21,2.21,0,0,1-.7.62c-2.22,1.37-4.62,2.67-6.88,4a.18.18,0,0,0-.08.09.16.16,0,0,0,0,.12l.16.64h0c.07.31.13.63.19,1,.1.55.19,1.09.25,1.62s.11,1.07.15,1.63.05,1.12.05,1.65,0,1.08-.05,1.65-.09,1.1-.15,1.63-.15,1.07-.25,1.62-.21,1.08-.34,1.59a.19.19,0,0,0,0,.13.2.2,0,0,0,.09.09c2.52,1.35,5.09,2.94,7.59,4.38l-.09.11.07.1a2.26,2.26,0,0,1,.42.85,2.47,2.47,0,0,1,.07.94,2.3,2.3,0,0,1-.31.9l-5.23,9.07-.1-.06-.16.13a2.41,2.41,0,0,1-.85.42,2.47,2.47,0,0,1-.94.06,2.58,2.58,0,0,1-.88-.28c-2.29-1.22-4.64-2.69-6.91-4a.14.14,0,0,0-.11,0,.16.16,0,0,0-.11,0,27.31,27.31,0,0,1-5.23,3.94,26.79,26.79,0,0,1-6,2.55.18.18,0,0,0-.1.07.17.17,0,0,0,0,.12v7.94a2.39,2.39,0,0,1-.18.92,2.55,2.55,0,0,1-.53.79,2.47,2.47,0,0,1-.79.52,2.37,2.37,0,0,1-.92.19h-9.75a2.4,2.4,0,0,1-.92-.19,2.47,2.47,0,0,1-.79-.52,2.36,2.36,0,0,1-.52-.79,2.4,2.4,0,0,1-.19-.92v-7.94a.16.16,0,0,0,0-.12A.14.14,0,0,0,629,251h0a27.69,27.69,0,0,1-3.06-1.09,27.18,27.18,0,0,1-5.64-3.26,26.65,26.65,0,0,1-2.5-2.14.16.16,0,0,0-.11-.05.24.24,0,0,0-.12,0l-6.88,4a2.47,2.47,0,0,1-.89.3,2.53,2.53,0,0,1-.95-.06,2.41,2.41,0,0,1-.85-.42,2.26,2.26,0,0,1-.61-.69c-1.8-2.9-3.51-6.08-5.23-9.07l.09,0a1.85,1.85,0,0,1,0-.23,2.47,2.47,0,0,1,.06-.94,2.41,2.41,0,0,1,1.13-1.47l6.87-4a.14.14,0,0,0,.08-.09.16.16,0,0,0,0-.12l-.18-.73h0c-.06-.28-.12-.57-.17-.86-.1-.55-.18-1.09-.25-1.62s-.11-1.08-.15-1.63-.05-1.11-.05-1.65,0-1.08.05-1.64.09-1.11.15-1.64.15-1.07.25-1.62.22-1.08.34-1.59a.19.19,0,0,0-.1-.22l-6.87-4a2.21,2.21,0,0,1-.7-.62,2.41,2.41,0,0,1-.42-.85,2.47,2.47,0,0,1-.06-.94,2.4,2.4,0,0,1,.29-.88c1.63-3,3.51-6.08,5.24-9.08l.1,0L608,202a2.41,2.41,0,0,1,.85-.42,2.53,2.53,0,0,1,.95-.06,2.41,2.41,0,0,1,.89.3l.51.29h0l6.38,3.68a.17.17,0,0,0,.12,0,.24.24,0,0,0,.11-.06h0a28.12,28.12,0,0,1,2.49-2.12,26.59,26.59,0,0,1,8.73-4.36.18.18,0,0,0,.1-.07.17.17,0,0,0,0-.11v-7.95a2.4,2.4,0,0,1,.19-.92,2.24,2.24,0,0,1,.53-.79,2.32,2.32,0,0,1,.78-.52,2.4,2.4,0,0,1,.92-.19h9.75a2.37,2.37,0,0,1,.92.19,2.47,2.47,0,0,1,.79.52,2.42,2.42,0,0,1,.71,1.71v7.95a.28.28,0,0,0,0,.12.2.2,0,0,0,.11.06h0A27,27,0,0,1,647,200.38Z"/><path class="cls-2" d="M574.65,257.26a6.6,6.6,0,1,0,1.93,4.66,6.62,6.62,0,0,0-1.93-4.66Zm-1.43-6.53a11.67,11.67,0,0,1,4.85,2.81.42.42,0,0,0,.49.05l3.06-1.76,0,0a.75.75,0,0,1,.55-.06.78.78,0,0,1,.47.35v0l2.15,3.73a.73.73,0,0,1,.08.57.76.76,0,0,1-.36.47h0l-3,1.75a.4.4,0,0,0-.19.45h0a10.65,10.65,0,0,1,.26,1.39,11.16,11.16,0,0,1,.09,1.42,10.93,10.93,0,0,1-.09,1.42,10.49,10.49,0,0,1-.26,1.4.42.42,0,0,0,.22.46l3,1.75h0a.72.72,0,0,1,.36.46.74.74,0,0,1-.08.58l-2.16,3.75h0a.78.78,0,0,1-.47.35.68.68,0,0,1-.57-.07h0l-3.05-1.76a.41.41,0,0,0-.48.06,11.57,11.57,0,0,1-4.87,2.82.41.41,0,0,0-.29.39v3.53a.76.76,0,0,1-.22.53.76.76,0,0,1-.54.23h-4.34a.76.76,0,0,1-.53-.23.72.72,0,0,1-.22-.53v-3.53a.41.41,0,0,0-.31-.4,11,11,0,0,1-2.59-1.1,11.85,11.85,0,0,1-2.27-1.71.39.39,0,0,0-.5,0l-3,1.75a.7.7,0,0,1-.58.07.73.73,0,0,1-.46-.35v0L555.14,268h0a.79.79,0,0,1-.07-.58.73.73,0,0,1,.35-.46l3.06-1.77a.4.4,0,0,0,.19-.44h0a10.49,10.49,0,0,1-.25-1.4,10.93,10.93,0,0,1-.09-1.42,11.16,11.16,0,0,1,.09-1.42,10.63,10.63,0,0,1,.25-1.39.39.39,0,0,0-.21-.46l-3-1.75a.78.78,0,0,1-.35-.47.77.77,0,0,1,.07-.57v0l2.16-3.74h0a.73.73,0,0,1,.46-.35.79.79,0,0,1,.58.07h0l3.06,1.76a.39.39,0,0,0,.49-.06,11.34,11.34,0,0,1,2.26-1.7,11.77,11.77,0,0,1,2.6-1.11.41.41,0,0,0,.3-.39V246.8a.76.76,0,0,1,.22-.54.79.79,0,0,1,.53-.22h4.34a.75.75,0,0,1,.76.76v3.53A.42.42,0,0,0,573.22,250.73Z"/><path class="cls-2" d="M182.5,28.79a1.14,1.14,0,0,1,2.27,0v2.66h2.66a1.13,1.13,0,0,1,0,2.26h-2.66v2.66a1.14,1.14,0,0,1-2.27,0V33.71h-2.65a1.13,1.13,0,1,1,0-2.26h2.65Z"/><path class="cls-2" d="M311.57,1.13a1.13,1.13,0,1,1,2.26,0V3.79h2.66a1.13,1.13,0,0,1,0,2.26h-2.66V8.71a1.13,1.13,0,0,1-2.26,0V6.05h-2.66a1.13,1.13,0,1,1,0-2.26h2.66Z"/><path class="cls-2" d="M482.12,141a1.14,1.14,0,0,1,2.27,0v2.66h2.66a1.13,1.13,0,0,1,0,2.26h-2.66v2.66a1.14,1.14,0,0,1-2.27,0v-2.66h-2.65a1.13,1.13,0,1,1,0-2.26h2.65Z"/><path class="cls-2" d="M654.21,280.78a1.14,1.14,0,1,1,2.27,0v2.65h2.65a1.14,1.14,0,1,1,0,2.27h-2.65v2.66a1.14,1.14,0,0,1-2.27,0V285.7h-2.66a1.14,1.14,0,0,1,0-2.27h2.66Z"/><path class="cls-2" d="M592.75,366.82a1.13,1.13,0,1,1,2.26,0v2.66h2.66a1.13,1.13,0,0,1,0,2.26H595v2.66a1.13,1.13,0,0,1-2.26,0v-2.66h-2.66a1.13,1.13,0,0,1,0-2.26h2.66Z"/><path class="cls-2" d="M53.44,354.53a1.13,1.13,0,0,1,2.26,0v2.66h2.66a1.13,1.13,0,1,1,0,2.26H55.7v2.66a1.13,1.13,0,0,1-2.26,0v-2.66H50.78a1.13,1.13,0,0,1,0-2.26h2.66Z"/><path class="cls-2" d="M22.71,205.49a1.13,1.13,0,0,1,2.26,0v2.66h2.66a1.13,1.13,0,1,1,0,2.26H25v2.66a1.13,1.13,0,0,1-2.26,0v-2.66H20.05a1.13,1.13,0,0,1,0-2.26h2.66Z"/><path class="cls-2" d="M53.19,43.43a1.13,1.13,0,0,1,2.26,0v2.66h2.66a1.13,1.13,0,1,1,0,2.26H55.45V51a1.13,1.13,0,0,1-2.26,0V48.35H50.53a1.13,1.13,0,0,1,0-2.26h2.66Z"/><path class="cls-2" d="M381.13,71.09a1.13,1.13,0,1,1,2.26,0v2.65h2.66a1.13,1.13,0,0,1,0,2.26h-2.66v2.66a1.13,1.13,0,0,1-2.26,0V76h-2.66a1.13,1.13,0,1,1,0-2.26h2.66Z"/><polygon class="cls-9" points="287.71 77.42 286 77.42 286 192.4 356.39 192.4 287.71 77.42"/><polygon class="cls-10" points="286.62 75.59 283.27 75.59 283.27 192.4 356.39 192.4 286.62 75.59"/><polygon class="cls-4" points="353.82 188.1 293.12 188.1 293.12 86.47 353.82 188.1"/><polygon class="cls-9" points="260.81 77.42 186.01 77.42 144.25 147.32 144.25 172.45 260.81 172.45 260.81 77.42"/><polygon class="cls-10" points="258.07 75.59 187.1 75.59 141.52 151.91 141.52 170.62 258.07 170.62 258.07 75.59"/><polygon class="cls-4" points="248.22 85.45 248.22 160.77 151.37 160.77 151.37 135.41 181.21 85.45 248.22 85.45"/><path class="cls-11" d="M259.51,67.26h42a5.57,5.57,0,0,1,5.55,5.55V112a.62.62,0,0,1-1.06.44l-9.46-9.46H259.51A5.56,5.56,0,0,1,254,97.39V72.81A5.56,5.56,0,0,1,259.51,67.26Z"/><path class="cls-4" d="M268.14,88.16a3.06,3.06,0,1,0-3.06-3.06A3.06,3.06,0,0,0,268.14,88.16Z"/><path class="cls-4" d="M280.52,88.16a3.06,3.06,0,1,0-3.06-3.06A3.07,3.07,0,0,0,280.52,88.16Z"/><path class="cls-4" d="M292.91,88.16a3.06,3.06,0,1,0-3.06-3.06A3.06,3.06,0,0,0,292.91,88.16Z"/><path class="cls-12" d="M334.79,177.77a18,18,0,0,1,.74,9c-.48,2.93-17.92,50.47-19.06,53.55s-6.35,8.36-11.69,9.27c-2.17.37-17.51,3.28-24.25,4.33-6,.92-7.9-4.9-12.19-8.31,6.54-1.63,32-11.69,33.12-12,1.4-.43,2.53-1.08,3.23-3.61S311,202.64,311,202.64s3.89-14.54,7.69-17.06C322.16,183.29,327.48,178,334.79,177.77Z"/><path class="cls-13" d="M317.43,275.5,315,296.79s4.91,66.88,6.15,78.5c.72,6.68,2.12,24.72,3.18,38.85h23l.93-131.25Z"/><path class="cls-14" d="M331.85,294l-1.2,7.53,4.05,112.65H361c2-18.86,5.06-46.67,6.64-57.73C370.13,339,371,314.76,371,309s-6.65-14.24-8.94-14.86S331.85,294,331.85,294Z"/><path class="cls-3" d="M344.82,171.4l-13.07,9.34s-9.33,36.51-9.37,38.16-3.6,21.8-3.6,21.8,13.07,5.18,14.94.2,22.82-40.66,23.85-46.26-1.45-18.88-2.69-20.33S344.82,171.4,344.82,171.4Z"/><polygon class="cls-11" points="340.04 177.16 339.35 173.14 340.42 170.74 342.13 163.47 366.61 148.56 356.49 174.26 340.04 177.16"/><path class="cls-4" d="M342.45,177.16s1.93,1.59,2.39,2.08,5.26,10.71,5.93,11.64l11.31-12.65s-.7-7.63-.88-8a29.32,29.32,0,0,0-2.56-2.29C357.78,171.43,348.67,173.4,342.45,177.16Z"/><path class="cls-12" d="M335.12,177.17c-5.59,1.55-16,7.52-18.63,13.5-6.1,13.71.22,29,.22,56.31,0,3.52-7.53,54.71-7.64,55.44a1.31,1.31,0,0,0,1.35,1.56c1,0,17.65-29.76,18.58-32.25s-.93-44.07-.93-44.07l1.75-41.84Z"/><path class="cls-15" d="M366.22,182.5s11.4,3.85,12,4.88S367.38,261,367.17,263.73s8.71,42.43,9,43.46a1.94,1.94,0,0,1-.25,1,3.91,3.91,0,0,1-1.41,1.24c-.36.26-34.17-6.81-37.49-8.89s-10.48-34.33-10.48-38.69,1.55-19.2,1.55-19.2l21.38-39.47S356,183.6,366.22,182.5Z"/><path class="cls-16" d="M336.55,175.32c-4.42,3-11,10-15.92,14.7,1.55.42,3.92,1.13,5.1,2.32.42.41-5,2-5.51,2.11s8.23,50.49,8.23,50.49,2.53-55.89,3.87-59.22a61.32,61.32,0,0,1,4.94-8.58Z"/><path class="cls-16" d="M362.16,177.15c-11.63,15.18-29.78,49.23-34.62,66.78l34.1-39.67-9.77-5.36,12.17.56c.72,0,2.87-16.17,3-16.69S362.16,177.15,362.16,177.15Z"/><path class="cls-4" d="M340.93,169a36.17,36.17,0,0,1-2.87,3c-.57.36-5.33,12.76-5.74,13.69s7.87-7.78,8.33-8a2,2,0,0,1,1.23.13l-.15-.6Z"/><path class="cls-11" d="M331.31,133.4a6.53,6.53,0,0,1,5.59,7,5.91,5.91,0,0,1-6.38,5.77,6.53,6.53,0,0,1-5.6-7A5.93,5.93,0,0,1,331.31,133.4Z"/><path class="cls-13" d="M328.05,126c-2.42,9.53,1.27,16.29,3.38,20.28s3.7-20.51,3.7-20.51Z"/><path class="cls-11" d="M372.09,136.06c3.21.34,4.83,3.47,3.63,7s-4.79,6.11-8,5.78-4.84-3.48-3.63-7S368.87,135.72,372.09,136.06Z"/><path class="cls-17" d="M352.44,103.06h0c10.75,3.76,21.17,12.1,19.16,24l-3.41,20.27a24.5,24.5,0,0,1-26.07,20.36c-11.3-1-13.51-12.91-12.77-24.94l1.23-19.88C331.32,110.8,341.15,101.9,352.44,103.06Z"/><path class="cls-18" d="M360.7,105.84l0,0A23.18,23.18,0,0,1,371.6,127l-3.41,19.89c-2.73,15.83-18.58,24.68-28.59,19.38a20.47,20.47,0,0,0,14-1.28c8.92-4.37,11-16.09,11.57-24.82,1.11-18-16.11-5.74-35-9.06-.67-.12.89-6,.26-6.13l.14-2.17a22.75,22.75,0,0,1,1.05-5.61c8.44-4.61,20.1-10.51,25.45-11.12l3.44-.38.12.07C360.53,105.83,360.52,105.84,360.7,105.84Z"/><path class="cls-19" d="M364.71,127.68s-.32,6.17-.52,10.15-.23,4.9,1.25,6.54c0,0,1.09,5.67,2.77,6.79,0,0,.2-10.09,2.08-14.26l.2-16.66a10.5,10.5,0,0,1-5.86,5.16A13.05,13.05,0,0,1,364.71,127.68Z"/><path class="cls-19" d="M330,131.74s-4.47-4-5.69-8.39c-1-3.67-4.19-21.64.47-19.77,10.47,4.21,43.86-14.35,45.84,8.9,0,0,1.52-1.53,2.75-1s-.62,3.26-.62,3.26,4.08,3.38,4.61,5.91c.36,1.75-2.17,9.3-4.57,14.75-1.07,2.42-4.93,14.07-4.84,15.08l-1.33-22.87-6.78-10.44-20.2-2.2-9.21,9.78Z"/><path class="cls-19" d="M368.92,133.1s-5.69-1.81-5.46-7.47c-1.93,3-6.55,3.22-3.93-1.48a39.66,39.66,0,0,1-29.91,4.93s-3-16.67.28-18.18,26.56,1.15,29,2.32,15,8.82,15,8.82l-5,11.06Zm-43-31.47a.35.35,0,0,1,0-.49.32.32,0,0,1,.47,0s4.84,5.24,13.93,3.78a.34.34,0,0,1,.38.29.36.36,0,0,1-.28.4c-9.43,1.51-14.48-3.95-14.49-4Zm44.29,13.09s2.55-7.15-2.8-15.44a.32.32,0,0,0-.46-.09.36.36,0,0,0-.09.48c5.15,8,2.73,14.8,2.72,14.82a.36.36,0,0,0,.21.45A.33.33,0,0,0,370.19,114.72Z"/><path class="cls-15" d="M375.05,185.41a18,18,0,0,1,6.61,6.18c1.61,2.49,20.68,49.4,21.9,52.45s.92,10.45-2.42,14.72c-1.36,1.73-10.75,14.2-15,19.51-3.8,4.7-9.14,1.69-14.61,2,3.75-5.6,15.79-30.12,16.41-31.18.75-1.25,1.15-2.5,0-4.84s-13.7-24.5-13.7-24.5S367,193.2,375.05,185.41Z"/><path class="cls-17" d="M273.9,244.47A9,9,0,0,1,270,243c-1.28-.86-3.12-2.77-6.49-3.84s-3.06.47-1.54,1.86a29.72,29.72,0,0,1,3.15,3.61s-6.47,1.9-9.21,2.44-3.75,2.38-2.35,3.17c.92.52,3.4-.12,3.72,0,.09,0-2.07.74-2.11,1a1.3,1.3,0,0,0,.91,1.73,4.38,4.38,0,0,0,2.67-.28,4.85,4.85,0,0,0-1.64,1.34,1,1,0,0,0,.27,1.22c.84.63,4.09,0,4.09,0a4.2,4.2,0,0,0-1.53,1.23,1,1,0,0,0,.51,1.31,24,24,0,0,0,4.72-.71,40.11,40.11,0,0,0,9-2.86c1.72-.91,2.78-1.63,3.89-1.7C278.57,252.43,279.79,245.2,273.9,244.47Z"/><path class="cls-18" d="M273.12,244.34c2.76,2.93,3.05,4.65,3.17,6.1,0,.52-.5,1.2-1.44,1.92a26.32,26.32,0,0,1-9.5,4,18.7,18.7,0,0,0-4,1.31c.89-.1,2.31-.36,3.86-.68a40.11,40.11,0,0,0,9-2.86c.7-.38,1.3-.72,1.84-1a5.32,5.32,0,0,1,2.05-.7c.5,0,1.72-7.26-4.17-8A6.34,6.34,0,0,1,273.12,244.34Z"/><path class="cls-2" d="M397.76,293.23a6.4,6.4,0,1,0-12.78.85c.93,13.55,2.41,28.62,4.59,45.34H273.32c2.3-16.63,4.13-31.61,5.58-45.09A6.4,6.4,0,0,0,266.17,293c-2.86,26.62-7.23,59.09-13.73,98.54q-1.81,11-3.84,22.62h13q1.85-10.59,3.48-20.57,3.65-22.08,6.43-41.32H391.33q2.79,19.32,6.82,41.45,1.83,9.92,3.92,20.44h13.05q-2.37-11.75-4.39-22.75c-3-16.53-5.48-31.82-7.45-46a5.66,5.66,0,0,0-.13-.92C400.52,325.37,398.79,308.35,397.76,293.23Z"/><path class="cls-2" d="M4.6,286.87h398c2.7,0,4.9,2.9,4.9,6.46h0c0,3.55-2.2,6.46-4.9,6.46H1.38A92.78,92.78,0,0,1,4.6,286.87Z"/><path class="cls-4" d="M8.51,276.84H413.05c3.44,0,6.25,3.71,6.25,8.24h0c0,4.54-2.81,8.25-6.25,8.25H2.75A93,93,0,0,1,8.51,276.84Z"/><path class="cls-20" d="M320.36,276.84h13v16.49h-13V276.84Zm74.05,0h7.27v16.49h-7.27V276.84Zm-25.51,0h14.54v16.49H368.9V276.84Zm-14.94,0h3.37v16.49H354V276.84Zm-13.85,0h6.75v16.49h-6.75Z"/><path class="cls-20" d="M7.33,279.52H120.16c2,0,3.72,2.2,3.72,4.9h0c0,2.69-1.67,4.9-3.72,4.9H3.83A93.4,93.4,0,0,1,7.33,279.52Z"/><path class="cls-16" d="M78.33,229.66s-6.7,10.65-7.36,16.17S90.43,270,95.29,276.33s-1.31,8.41-3.15,8S57,257.79,54.93,254c-5.14-9.32,15.32-55.78,19.37-57.83C80.69,192.93,78.33,229.66,78.33,229.66Z"/><path class="cls-13" d="M123.19,329.71l2.9,8.14s-7.58,46.56-12,76.29H90c-5.69-26.61-16.11-72.42-8.29-91.31C92.58,296.61,123.19,329.71,123.19,329.71Z"/><path class="cls-14" d="M146.66,321.66l-1.21,7.78s1.66,56.18,2.35,84.7H124.5c-8.12-24.73-25.81-73.2-19.78-94.13C112.61,292.6,146.66,321.66,146.66,321.66Z"/><path class="cls-13" d="M143.05,414.14h-1.57A629.92,629.92,0,0,0,137,324.89a.78.78,0,0,1,.68-.87.77.77,0,0,1,.87.67A632.59,632.59,0,0,1,143.05,414.14Z"/><path class="cls-11" d="M78,242.56s9,26.11,9.73,30.22-9.86,48.12-11.39,57.51a1.24,1.24,0,0,0,.78,1.32,194.84,194.84,0,0,1,32.06-1.17c16.81.88,25.81,7.29,38.32,1.57,0,0,1.05-.29.58-2.64s-9.55-44.19-9.28-55.93c.11-4.75,0-12.58-.23-20.45-.3-11.57,6.91-26.75,7-28.85.11-3.52-8.35-20-31.59-31.73S73.22,213.29,78,242.56Z"/><path class="cls-21" d="M78,242.56,79.51,247a3.17,3.17,0,0,1,1.31-1.11c1.66-.62,6.1.54,13.61.08a27.61,27.61,0,0,0,21-12.91c4.56-7.72,17.1,11.54,17.43,12.54A50,50,0,0,1,135.11,260c-.17,6.31,4,32,5,41.42s5.76,28.16,1.22,32.59a25.37,25.37,0,0,0,6.19-2s1.05-.29.58-2.64-9.55-44.19-9.28-55.93c.11-4.75,0-12.58-.23-20.45-.3-11.57,6.91-26.75,7-28.85.11-3.52-8.35-20-31.59-31.73s-40.74,20.88-36,50.15Zm9.63,29.77a11.21,11.21,0,0,0,3.4,1.82c2.08.5,11.71.42,10.46,1.5s-11.21,3.82-11.87,5S88.46,292.25,89,314c.21,8,2.54,13.11,5.4,16.34-10,.31-17.31,1.29-17.31,1.29a1.24,1.24,0,0,1-.78-1.32c1.53-9.39,12.16-53.4,11.39-57.51Z"/><path class="cls-17" d="M130.46,131.14l3,9.05s-1.93,30.35-5.17,34.95-8.14.72-14-.49-5.54-10.41-5.94-13.11S112.09,134.11,130.46,131.14Z"/><path class="cls-16" d="M111.21,201.44c11.48,22.31,34.85,59.62,39.87,64.62a30,30,0,0,0,6.63,5.2A78.45,78.45,0,0,0,168.86,276c9.56,3.55,29.57,9.84,32,9.61s3.16-5.48,2.33-7-29.45-13.12-36.31-17.32S147.91,220.75,143,210C130.44,182.65,99.72,179.13,111.21,201.44Z"/><path class="cls-19" d="M132.6,145.51c14.07.42,12.73-25.28,3.94-31.72-5.54-4.05-22.11,2.39-30.08,2.53S75.6,118,77.22,154.46c.6,13.33-1.52,23.12-4.69,31.25-7.61,19.51-13.67,54.73,8.38,58.64,20.38,3.61,31.91-3.71,36.84-24,0,0,.82-15.13,11.08-20.81s4.27-10.83-1.62-18.1-10.54-10.95-9.19-20.94,10.48-3.54,14.19-15Z"/><path class="cls-13" d="M132.6,145.51c7.93.23,11-7.83,10.53-16.06-5.06,11-21.92,7.77-21.92,7.77.49,6.23-13.29,10.21-18.43,21.67S111.21,201.44,98,225c-13.12,23.3-29.52,9.4-29.82,9.13a16.41,16.41,0,0,0,12.77,10.25c20.38,3.61,31.91-3.71,36.84-24,0,0,.82-15.13,11.08-20.81s4.27-10.83-1.62-18.1-10.54-10.95-9.19-20.94,10.48-3.54,14.19-15Z"/><path class="cls-13" d="M116.46,160.52a.39.39,0,0,1,.34-.44.39.39,0,0,1,.43.34s1,8.26,6.53,13.89a58.35,58.35,0,0,1,8.86,11.19c1.69,3,2.53,5.79,1.69,7.75a.4.4,0,0,1-.52.21.39.39,0,0,1-.2-.52c.73-1.71-.07-4.25-1.65-7.05a58,58,0,0,0-8.73-11C117.47,169,116.46,160.54,116.46,160.52Z"/><path class="cls-13" d="M141.94,127a.39.39,0,0,1,.78-.12c0,.07,3.85,23-13,20.37a.39.39,0,0,1,.11-.77C145.62,148.94,142,127.06,141.94,127Z"/><path class="cls-17" d="M260.89,324.51c2.25,4.64,8.68,16.21,6.18,22.51-.78,2-2.69,3.17-3.17,2.76s-.09-1.83-.09-1.83c-1,2.17-1.46,2-3.28,1.31-.53-.21.51-1.36.66-2.34,0,0-.25,1.85-1.73,2.17-.38.09-2.53-.09-2.18-.43a3.06,3.06,0,0,0,1.14-2.87c0,1.45-1.6,2.72-2.16,2.91-1.3.45-4.23-3.41-2.91-4,.58-.25,2.7,1.71,2.17.61a16.29,16.29,0,0,1-.87-2.54c-1-3.31-1-2.62-1.58-4.65-.29-.94.74-4.48.53-5.23-1-3.59-2.46-10.43-2.46-10.43Z"/><path class="cls-22" d="M181.09,312.3l-4.6,18s-4.37,42-8.7,83.84h33.55c6.7-29.25,12.17-53.21,13.56-58.85C219,338.67,219,313.52,181.09,312.3Z"/><path class="cls-17" d="M224.43,120.76,228,131s-.95,28.34-4.57,33.6-10.42,4.95-17,3.65-6-9.61-6.55-12.68S203.62,124.39,224.43,120.76Z"/><path class="cls-23" d="M206,155.34l7,1.71s-4,22.17-5,23.1-22.65-2.55-23.6-5.07,1.82-7.23,2.32-10.69a48.18,48.18,0,0,1,1.67-7.07Z"/><path class="cls-4" d="M209.09,176.71a3,3,0,0,1,1.3,2c.06.78.3,2.93.46,4.29.08.69.14,1.18.14,1.18s-1.24,1.9-7.69.9-18.53-4.14-19.47-5,.37-6.43.37-6.43S200.67,177,209.09,176.71Z"/><path class="cls-4" d="M166.94,195.87a40.5,40.5,0,0,0-8.09,13.83c-2.84,8.39-7.63,51.81-8.09,57.39s26.85,41.14,27.6,41.84c0,0,.28.56,1.45-.12s5.11-4.23,4.89-6S164.5,273.68,164,267.26s18.22-44.43,18.83-51.87S173.89,191.5,166.94,195.87Z"/><path class="cls-24" d="M241.67,325l6.82,5.43s-1.28,38.94-2.89,83.74H214.92c-1.53-18.56-2.93-33-3.9-37.8C207.43,358.6,198.17,329,199.9,320S241.67,325,241.67,325Z"/><path class="cls-22" d="M241.67,325l1,.83c-.08,5.91-.55,44.27-1.17,88.34h-2.09c.68-47.81,1.17-88.92,1.18-89.18a1.13,1.13,0,0,1,.05-.32Z"/><path class="cls-25" d="M210.85,183.09s19.72,6.1,21.44,9.24,7.61,32.7,8.06,68.8,8.78,65.47,9.17,72.43c0,0-.21,1.51-1,1.84,0,0-5.73,1.5-23.07,1s-40.67-3.15-48.93-1.14c0,0-1.76.73-2.17-2s8.75-48.5,8.52-67.5-19.6-59.16-20.1-62.48,13.78-19.45,20.74-24.06Z"/><path class="cls-26" d="M192.25,334.65c-6.74-.25-12.41-.19-15.7.61,0,0-1.76.73-2.17-2s8.75-48.5,8.52-67.5-19.6-59.16-20.1-62.48,13.78-19.45,20.74-24.06l2.29.33c-3.39,2.95-10.74,9.56-13,13.28-2.9,4.9,1.74,22.41,4.9,31.88s10,31,10.79,32.87,4.65,2.49,6.81,3.65-4,2.33-5.15,4.49C189.33,267.36,191.41,309.73,192.25,334.65Z"/><path class="cls-4" d="M232.55,192.12c1.53,1.73,3.86,5.33,5.64,12.36,2.9,11.46,8.47,52.65,12.38,71.31s12.56,47.84,12.57,49.38a4.81,4.81,0,0,1-2.4,3.94,60.6,60.6,0,0,1-5.8,2.45,3.26,3.26,0,0,1-3.07-.66c-.63-.76-13.12-31.5-18-52.3-3.63-15.56-12.17-48-15.27-64.42C216.15,201.08,226.46,185.25,232.55,192.12Z"/><path class="cls-13" d="M228,131s4.11-1.59,6.11-4.33-2.1-20.63-4.55-23.8-10.32,2.9-13.83,3.06S184.15,87.8,181.9,116.76a2.82,2.82,0,0,0-2.21-1.61c-1.6-.16-1.44,2.92.73,3.75a16.83,16.83,0,0,0-4,11.58c.33,7,10.22,29.11,10.28,33.91,0,0,13.77,2.16,18.41.35s8.44-7.29,8.41-9.37,0-2.44,0-3.12a12.22,12.22,0,0,0-1.12-4.18c-.89-2.18-1.92-5-.71-6.35s5.15-1.19,6,4.5c0,0,.09.46.39.46s.35-.35.34-.86-.48-5.79-.5-6.62c0,0,4.4-7.45,4.05-11.21C221.9,128,225.32,130.82,228,131Z"/><path class="cls-19" d="M233.43,114.51c-1.09-5.07-2.67-10.11-3.86-11.65-2.44-3.18-10.32,2.9-13.83,3.06S184.15,87.8,181.9,116.76a2.82,2.82,0,0,0-2.21-1.61c-1.6-.16-1.44,2.92.73,3.75a16.88,16.88,0,0,0-4,10.88c1.67,3,4.94,6,11.29,7.36,14.44,3,28.14-15.11,29.05-18.76,0,0,.17-.92.79-.34S231.79,126.09,233.43,114.51Z"/><path class="cls-13" d="M227.4,130.21a.34.34,0,1,0-.2.66s2.93.93,7.16-2.44a.35.35,0,0,0,.06-.49.36.36,0,0,0-.49-.06C230,131,227.41,130.21,227.4,130.21Z"/><path class="cls-19" d="M182.09,117.89a.34.34,0,1,0,.65-.23s-2.55-6.83,2.86-14.83a.34.34,0,0,0-.09-.48.35.35,0,0,0-.49.09C179.41,110.73,182.08,117.87,182.09,117.89Z"/><path class="cls-23" d="M256.13,340.26c-.57-3.55,0-7,1-7,.77,0,4-1.95,6.05-4.19l-.75-1.53a4.26,4.26,0,0,1-1.65,1.58,60.6,60.6,0,0,1-5.8,2.45,4.57,4.57,0,0,1-1.69.05c.12.47.24.91.35,1.31.21.75-.82,4.29-.53,5.23.63,2,.61,1.34,1.58,4.65a16.29,16.29,0,0,0,.87,2.54c.53,1.1-1.59-.86-2.17-.61a.5.5,0,0,0-.32.41c1.17,1.25,2.81,2.56,3.54,2.18C257.57,346.79,256.71,343.81,256.13,340.26Z"/><path class="cls-21" d="M528.75,283.22C549.86,272,555.21,296.41,547,316.63c-6.68,16.44-35.78,64.48-47.6,96.35H488C487.51,368.81,504.17,296.29,528.75,283.22Z"/><path class="cls-27" d="M484.05,190.61c-24.2-21.79-39.33,8.71-35.15,38.14s37.43,133.18,31.44,169.55c-2.32,14.09.64,13.23,5.26,4.09C508.65,356.82,517.37,220.61,484.05,190.61Z"/><path class="cls-21" d="M479.84,408.4c.51,1.35,1.67.68,3.21-1.56,25.22-84-14.07-209.57-14.2-210a1.31,1.31,0,1,0-2.5.78C466.47,198,506.3,325.3,479.84,408.4Z"/><path class="cls-28" d="M431.19,260.43c-23.45-10.21-27.13,16.28-16.69,37.15,10.08,20.17,57.61,85.23,65,115.4h6.09C488.78,370.34,462.25,273.94,431.19,260.43Z"/><path class="cls-27" d="M483.68,413c-6.54-67-62.07-143.86-62.26-144.11a1,1,0,0,0-1.43-.24,1,1,0,0,0-.24,1.44c.18.25,55.36,76.61,61.88,142.91Z"/><path class="cls-29" d="M452.45,394.68H521a3.74,3.74,0,0,1,3.73,3.73V413h-76V398.41A3.74,3.74,0,0,1,452.45,394.68Z"/><path class="cls-22" d="M451.7,394.68h54.74c1.63,0,3,1.68,3,3.73V413H448.72V398.41C448.72,396.36,450.06,394.68,451.7,394.68Z"/><path class="cls-13" d="M633.32,420H23.89a5,5,0,0,1-5-5h0a5,5,0,0,1,5-5H633.32a5,5,0,0,1,5,5h0A5,5,0,0,1,633.32,420Z"/></g></g></svg>