<svg xmlns="http://www.w3.org/2000/svg" viewBox="0 0 569.04 385.72"><defs><style>.cls-1{fill:#ebebeb;}.cls-1,.cls-2,.cls-3{fill-rule:evenodd;}.cls-2{fill:#f0f0f0;}.cls-3,.cls-8{fill:#e0e0e0;}.cls-4{fill:#e8505b;}.cls-5{fill:#263238;}.cls-6{fill:#455a64;}.cls-7{fill:#fff;}.cls-9{fill:#fafafa;}.cls-10{fill:#b78876;}.cls-11{fill:#a36957;}</style></defs><title>Asset 7</title><g id="Layer_2" data-name="Layer 2"><g id="Character"><path class="cls-1" d="M488.84,122.85a18.44,18.44,0,0,1,3.54,3.46l4.51-.82,3,7-3.72,2.69a18.62,18.62,0,0,1,.06,5l3.77,2.61-2.83,7-4.53-.73a18.44,18.44,0,0,1-3.46,3.54l.82,4.51-7,3-2.69-3.71a19.05,19.05,0,0,1-4.95.05l-2.6,3.77-7.05-2.83.73-4.53a18.44,18.44,0,0,1-3.54-3.46l-4.51.82-3-7,3.72-2.69a18.62,18.62,0,0,1-.06-4.95L455.3,133l2.83-7,4.53.73a18.73,18.73,0,0,1,3.46-3.54l-.82-4.51,7-3,2.69,3.72a18.62,18.62,0,0,1,4.95-.06l2.61-3.77,7,2.83-.73,4.53ZM481,130.4a8.15,8.15,0,1,0,4.52,10.6A8.16,8.16,0,0,0,481,130.4Z"/><path class="cls-1" d="M70.17,153.29a33.26,33.26,0,0,1,6.39,6.26l8.16-1.49,5.39,12.62-6.72,4.86a33.91,33.91,0,0,1,.1,9l6.82,4.71-5.12,12.73L77,200.62A33.86,33.86,0,0,1,70.75,207l1.48,8.16-12.62,5.38-4.86-6.72a33.42,33.42,0,0,1-8.94.1l-4.71,6.82-12.74-5.12,1.32-8.18a33.86,33.86,0,0,1-6.39-6.26l-8.16,1.49L9.74,190.06l6.72-4.86a33.5,33.5,0,0,1-.09-8.95l-6.83-4.71,5.12-12.73,8.19,1.31a33.26,33.26,0,0,1,6.26-6.39l-1.49-8.16,12.62-5.38,4.86,6.72a33.42,33.42,0,0,1,8.94-.1L58.76,140l12.73,5.11-1.32,8.19ZM56,166.94a14.72,14.72,0,1,0,8.17,19.15A14.72,14.72,0,0,0,56,166.94Z"/><path class="cls-2" d="M36.69,89.4a18.73,18.73,0,0,1,3.53,3.47L44.74,92l3,7L44,101.71a18.63,18.63,0,0,1,0,5l3.78,2.61-2.83,7-4.53-.73A18.43,18.43,0,0,1,37,119.12l.83,4.52-7,3-2.69-3.72a18.63,18.63,0,0,1-4.95,0l-2.61,3.78-7-2.83.72-4.53a18.43,18.43,0,0,1-3.53-3.47l-4.52.83-3-7L7,107.06a18.63,18.63,0,0,1,0-5L3.14,99.5l2.83-7,4.53.72A18.72,18.72,0,0,1,14,89.65l-.83-4.52,7-3,2.69,3.72a18.63,18.63,0,0,1,5-.05l2.61-3.77,7,2.83-.72,4.52ZM28.84,97a8.14,8.14,0,1,0,4.52,10.59A8.14,8.14,0,0,0,28.84,97Z"/><path class="cls-3" d="M128.54,33.86a46.15,46.15,0,0,1,10.9,5.76l10.2-5.18L161.72,49l-7,9.06a46.15,46.15,0,0,1,3.65,11.79l10.86,3.55-1.75,18.84-11.33,1.48a46.56,46.56,0,0,1-5.77,10.9l5.18,10.2L141,126.91l-9.07-7a46.88,46.88,0,0,1-11.78,3.65l-3.55,10.86L97.79,132.7l-1.48-11.34A46,46,0,0,1,85.4,115.6l-10.2,5.18L63.12,106.21l7-9.06a46.46,46.46,0,0,1-3.64-11.78L55.58,81.82,57.33,63,68.67,61.5a46,46,0,0,1,5.76-10.91l-5.17-10.2L83.82,28.31l9.07,7a46.33,46.33,0,0,1,11.78-3.64l3.55-10.87,18.84,1.75,1.48,11.34ZM115.16,57.48a20.3,20.3,0,1,0,18.33,22.09A20.3,20.3,0,0,0,115.16,57.48Z"/><path class="cls-4" d="M49.46,345.61C62,337.44,65.12,321.8,65,307.66c0-2.36.3-4.84-.79-6.93s-3.7-3.58-5.86-2.63c-1.8.78-2.62,2.8-3.66,4.46a13.82,13.82,0,0,1-5.73,5.14c-1.54.75-3.43,1.18-4.91.32-2-1.17-2.21-4-2.14-6.33q.21-6.56.41-13.11a21.51,21.51,0,0,0-.55-7,7.28,7.28,0,0,0-4.51-5c-2.25-.68-5.07.54-5.61,2.82a21.8,21.8,0,0,0-.13,2.92A2.46,2.46,0,0,1,30,284.6a2.89,2.89,0,0,1-2.59-1.13,31.28,31.28,0,0,1-5.46-8.59A43.33,43.33,0,0,0,16.85,266c-2.16-2.63-5.19-4.75-8.58-5s-7.08,1.71-8,5,.93,6.68,3,9.41A52.87,52.87,0,0,0,14,286.06a4.37,4.37,0,0,1,1.8,2c.48,1.57-1.06,3.09-2.64,3.56-1.79.54-3.7.32-5.56.49s-3.89.93-4.63,2.64c-1,2.37.94,4.93,2.9,6.62a45.3,45.3,0,0,0,13.26,8,15.42,15.42,0,0,1,4.93,2.51c1.38,1.25,2.18,3.38,1.29,5s-3.09,2.11-4.91,1.73a32,32,0,0,1-5.17-2.09c-3.24-1.3-7.46-1.18-9.62,1.56a7.34,7.34,0,0,0-1,6.54,17.11,17.11,0,0,0,3.46,5.88,45.65,45.65,0,0,0,19.18,14c7.51,2.77,14.51,3.64,22.1,1.1"/><path class="cls-5" d="M3.76,262.86a1.3,1.3,0,0,0,.23.23l.69.64c.61.56,1.5,1.38,2.63,2.47a88.62,88.62,0,0,1,8.84,9.88c1.71,2.22,3.49,4.72,5.35,7.45s3.81,5.65,5.76,8.8a105.81,105.81,0,0,1,5.62,10.16c.87,1.82,1.64,3.71,2.43,5.65L37.68,314a212.41,212.41,0,0,1,7.92,22.77,102.69,102.69,0,0,1,3.48,19.33,74.79,74.79,0,0,1-.1,13.25c-.16,1.56-.31,2.77-.44,3.58-.06.39-.1.7-.13.93s0,.32,0,.32a1.11,1.11,0,0,0,.08-.31c0-.23.1-.53.17-.92.17-.81.34-2,.53-3.58a71.9,71.9,0,0,0,.24-13.29A102,102,0,0,0,46,336.67a211.23,211.23,0,0,0-7.9-22.82q-1.22-3-2.38-5.88c-.79-1.93-1.57-3.84-2.45-5.66a103,103,0,0,0-5.66-10.19c-2-3.16-3.93-6.08-5.8-8.8s-3.67-5.22-5.41-7.43a83.18,83.18,0,0,0-9-9.81c-1.15-1.08-2.06-1.88-2.69-2.42l-.72-.6Z"/><path class="cls-5" d="M33.14,302.29a4.53,4.53,0,0,0,.25-1c.15-.64.32-1.58.51-2.74.4-2.33.83-5.56,1.29-9.13s.94-6.78,1.37-9.09c.21-1.16.39-2.1.52-2.74a4.72,4.72,0,0,0,.16-1,4.62,4.62,0,0,0-.32,1c-.19.63-.41,1.56-.66,2.72-.51,2.31-1,5.53-1.5,9.1s-.85,6.7-1.16,9.13c-.15,1.1-.27,2-.37,2.77A4.3,4.3,0,0,0,33.14,302.29Z"/><path class="cls-5" d="M2.73,295.93a6.52,6.52,0,0,0,1.21.17c.79.09,1.92.21,3.31.4,2.79.37,6.63,1,10.83,1.89s8,1.86,10.68,2.64c1.35.38,2.44.71,3.19.94a6.92,6.92,0,0,0,1.19.32,6.13,6.13,0,0,0-1.13-.48c-.74-.28-1.82-.66-3.17-1.08-2.69-.85-6.45-1.87-10.67-2.77a109.19,109.19,0,0,0-10.88-1.77C5.89,296,4.75,296,4,295.93A6.47,6.47,0,0,0,2.73,295.93Z"/><path class="cls-5" d="M45.62,336.11a1.49,1.49,0,0,0,.22-.36l.55-1.08c.47-.94,1.12-2.32,1.9-4,1.56-3.41,3.56-8.2,5.7-13.52s4.09-10.11,5.57-13.56c.73-1.67,1.33-3.05,1.77-4.08l.48-1.11A1.92,1.92,0,0,0,62,298s-.09.12-.22.36l-.55,1.08c-.47.94-1.12,2.32-1.9,4-1.56,3.41-3.56,8.2-5.7,13.52S49.49,327.07,48,330.52c-.73,1.67-1.33,3.05-1.77,4.08l-.48,1.11A1.92,1.92,0,0,0,45.62,336.11Z"/><path class="cls-5" d="M5.35,322.23a1.76,1.76,0,0,0,.4.17l1.17.42,4.31,1.49c3.64,1.26,8.65,3.07,14.18,5.06s10.56,3.76,14.23,4.95c1.84.59,3.33,1.06,4.36,1.36l1.2.34a2.16,2.16,0,0,0,.42.09s-.13-.08-.4-.18l-1.16-.41L39.74,334C36.1,332.76,31.09,331,25.56,329S15,325.21,11.33,324C9.49,323.42,8,323,7,322.66l-1.2-.34C5.5,322.24,5.35,322.21,5.35,322.23Z"/><path class="cls-6" d="M455.28,240.06l-60.34-.28a13.12,13.12,0,0,1-13.08-13.16l.64-150.84a13.12,13.12,0,0,1,13.2-13.05L456,63a13.12,13.12,0,0,1,13.08,13.16L468.48,227A13.12,13.12,0,0,1,455.28,240.06Z"/><path class="cls-7" d="M456,68.21l-11.7,0a2.9,2.9,0,0,0-2.85,3v2.11a2.9,2.9,0,0,1-2.85,3l-22.8-.1a2.91,2.91,0,0,1-2.83-3V71a2.91,2.91,0,0,0-2.83-3L406,68l-10.23,0a9.19,9.19,0,0,0-9.25,9.14l-.62,147.22a9.18,9.18,0,0,0,9.16,9.22l60.21.28a9.19,9.19,0,0,0,9.25-9.14l.62-147.23A9.2,9.2,0,0,0,456,68.21Z"/><rect class="cls-6" x="395.38" y="168.39" width="59.58" height="3.99"/><path class="cls-6" d="M452.84,184.09c0,.14-12.72.26-28.4.26s-28.41-.12-28.41-.26,12.72-.27,28.41-.27S452.84,183.94,452.84,184.09Z"/><path class="cls-6" d="M452.84,89.55c0,.14-12.72.26-28.4.26S396,89.69,396,89.55s12.72-.26,28.41-.26S452.84,89.4,452.84,89.55Z"/><path class="cls-6" d="M452.84,191.34c0,.14-12.72.26-28.4.26s-28.41-.12-28.41-.26,12.72-.26,28.41-.26S452.84,191.2,452.84,191.34Z"/><path class="cls-6" d="M452.84,198.6c0,.14-12.72.26-28.4.26S396,198.74,396,198.6s12.72-.27,28.41-.27S452.84,198.45,452.84,198.6Z"/><path class="cls-6" d="M452.84,205.85c0,.14-12.72.26-28.4.26S396,206,396,205.85s12.72-.26,28.41-.26S452.84,205.71,452.84,205.85Z"/><path class="cls-6" d="M452.84,213.11c0,.14-12.72.26-28.4.26s-28.41-.12-28.41-.26,12.72-.26,28.41-.26S452.84,213,452.84,213.11Z"/><path class="cls-6" d="M453.65,221.33c0,.15-12.72.26-28.4.26s-28.4-.11-28.4-.26,12.71-.26,28.4-.26S453.65,221.19,453.65,221.33Z"/><rect class="cls-8" x="396.03" y="97.82" width="59.73" height="57.79"/><polygon class="cls-4" points="400.67 150.66 417.19 120.92 430.7 139.93 438.92 129.84 451.13 150.66 400.67 150.66"/><path class="cls-4" d="M436.46,115.14a4.3,4.3,0,1,1-4.3-4.3A4.29,4.29,0,0,1,436.46,115.14Z"/><path class="cls-6" d="M451.13,150.82s0-.08,0-.23,0-.4,0-.68c0-.61,0-1.48,0-2.6,0-2.29,0-5.6-.07-9.81,0-8.44-.07-20.46-.12-34.89l.24.24-50.46,0c-.07.06.53-.54.28-.28v13c0,4.24,0,8.4,0,12.45,0,8.09,0,15.74,0,22.78l-.24-.24,36.49.12,10.29.07,2.73,0h.95s-.07,0-.22,0h-.68l-2.68,0-10.24.07-36.64.12h-.25v-.25c0-7,0-14.69,0-22.78,0-4,0-8.21,0-12.45v-13l.29-.29,50.46,0h.25v.25c-.05,14.49-.1,26.57-.13,35,0,4.19-.05,7.48-.06,9.76,0,1.1,0,2,0,2.56,0,.27,0,.48,0,.64S451.14,150.83,451.13,150.82Z"/><rect class="cls-6" x="175.8" y="-34.01" width="156.32" height="224.34" rx="11.55" transform="translate(175.8 332.12) rotate(-90)"/><rect class="cls-7" x="177.58" y="-15.51" width="146.46" height="187.35" transform="translate(172.65 328.98) rotate(-90)"/><path class="cls-5" d="M354.86,72.16a6,6,0,1,1-6,6A6,6,0,0,1,354.86,72.16Z"/><rect class="cls-5" x="125.95" y="76.92" width="47.08" height="2.48" rx="1.22" transform="translate(71.33 227.65) rotate(-90)"/><rect class="cls-6" x="242.59" y="15.94" width="59.58" height="3.99"/><rect class="cls-6" x="164.98" y="84.46" width="59.58" height="3.99"/><path class="cls-6" d="M316.69,30.78c0,.14-16.59.26-37.05.26s-37-.12-37-.26,16.58-.26,37-.26S316.69,30.63,316.69,30.78Z"/><path class="cls-6" d="M316.69,39.48c0,.15-16.59.26-37.05.26s-37-.11-37-.26,16.58-.26,37-.26S316.69,39.34,316.69,39.48Z"/><path class="cls-6" d="M316.69,48.19c0,.14-16.59.26-37.05.26s-37-.12-37-.26,16.58-.27,37-.27S316.69,48,316.69,48.19Z"/><path class="cls-6" d="M316.69,56.89c0,.14-16.59.26-37.05.26s-37-.12-37-.26,16.58-.26,37-.26S316.69,56.74,316.69,56.89Z"/><path class="cls-6" d="M316.69,65.59c0,.14-16.59.26-37.05.26s-37-.12-37-.26,16.58-.26,37-.26S316.69,65.45,316.69,65.59Z"/><path class="cls-6" d="M300.44,74.29c0,.15-12.95.26-28.93.26s-28.92-.11-28.92-.26S255.54,74,271.51,74,300.44,74.15,300.44,74.29Z"/><path class="cls-6" d="M262.83,100.15c0,.15-21.76.26-48.59.26s-48.61-.11-48.61-.26,21.76-.26,48.61-.26S262.83,100,262.83,100.15Z"/><path class="cls-6" d="M262.83,107.41c0,.14-21.76.26-48.59.26s-48.61-.12-48.61-.26,21.76-.26,48.61-.26S262.83,107.26,262.83,107.41Z"/><path class="cls-6" d="M262.83,114.66c0,.15-21.76.26-48.59.26s-48.61-.11-48.61-.26,21.76-.26,48.61-.26S262.83,114.52,262.83,114.66Z"/><path class="cls-6" d="M262.83,121.92c0,.14-21.76.26-48.59.26s-48.61-.12-48.61-.26,21.76-.26,48.61-.26S262.83,121.77,262.83,121.92Z"/><path class="cls-6" d="M262.83,129.17c0,.15-21.76.26-48.59.26s-48.61-.11-48.61-.26,21.76-.26,48.61-.26S262.83,129,262.83,129.17Z"/><rect class="cls-4" x="165.63" y="13.89" width="59.73" height="57.79"/><polygon class="cls-8" points="170.26 66.73 186.79 36.99 200.3 56 208.51 45.91 220.73 66.73 170.26 66.73"/><path class="cls-8" d="M206.06,31.21a4.3,4.3,0,1,1-4.3-4.3A4.3,4.3,0,0,1,206.06,31.21Z"/><path class="cls-6" d="M220.73,66.89a2.17,2.17,0,0,1,0-.24c0-.17,0-.39,0-.67,0-.61,0-1.48,0-2.6,0-2.29,0-5.61-.07-9.81,0-8.44-.07-20.47-.12-34.9l.24.25-50.46,0c-.07.06.53-.54.28-.28h0v13q0,6.38,0,12.46c0,8.09,0,15.74,0,22.78l-.25-.25,36.49.13,10.3.06,2.73,0,.7,0h.25s-.07,0-.22,0h-.68l-2.68,0L206.91,67l-36.65.13H170v-.25c0-7,0-14.69,0-22.78q0-6.07,0-12.46v-13h0c-.25.25.34-.36.29-.29l50.46,0H221v.24c0,14.5-.1,26.57-.13,35.05,0,4.19,0,7.48-.06,9.76q0,1.65,0,2.55c0,.27,0,.49,0,.65S220.74,66.9,220.73,66.89Z"/><rect class="cls-4" x="276.24" y="92.13" width="42.27" height="40.9"/><polygon class="cls-8" points="279.52 129.53 291.21 108.48 300.78 121.93 306.59 114.79 315.24 129.53 279.52 129.53"/><path class="cls-8" d="M304.85,104.39a3,3,0,1,1-3-3A3,3,0,0,1,304.85,104.39Z"/><path class="cls-6" d="M315.24,129.64s0-.06,0-.17,0-.28,0-.48c0-.43,0-1,0-1.84,0-1.62,0-4-.05-6.94,0-6,0-14.48-.09-24.7l.18.18-35.72,0,.2-.2h0v9.17q0,4.51,0,8.81c0,5.73,0,11.15,0,16.13l-.17-.18,25.82.09,7.29,0,1.93,0h0l-1.9,0-7.24,0-25.94.08h-.18v-.17c0-5,0-10.4,0-16.13v-18h0l.2-.21,35.72,0h.17v.17c0,10.26-.07,18.81-.09,24.81,0,3,0,5.29,0,6.91,0,.77,0,1.37,0,1.8,0,.19,0,.34,0,.46S315.24,129.64,315.24,129.64Z"/><rect class="cls-5" x="49.93" y="172.13" width="313.59" height="207.37" rx="14.57"/><path class="cls-5" d="M36.81,364.17H376.56a0,0,0,0,1,0,0v.35a17.8,17.8,0,0,1-17.8,17.8H54.61a17.8,17.8,0,0,1-17.8-17.8v-.35A0,0,0,0,1,36.81,364.17Z"/><rect class="cls-8" x="58.34" y="180.37" width="295.88" height="175.12"/><polygon class="cls-6" points="175.81 364.17 180.02 370.87 239.35 370.87 243.26 364.17 175.81 364.17"/><rect class="cls-9" x="68.21" y="192.03" width="272.41" height="163.39"/><path class="cls-6" d="M79.84,200.09a2.29,2.29,0,1,1-2.29-2.29A2.28,2.28,0,0,1,79.84,200.09Z"/><path class="cls-6" d="M89.17,200.09a2.29,2.29,0,1,1-2.29-2.29A2.29,2.29,0,0,1,89.17,200.09Z"/><path class="cls-6" d="M98.49,200.09a2.29,2.29,0,1,1-2.28-2.29A2.28,2.28,0,0,1,98.49,200.09Z"/><path class="cls-6" d="M340.62,210.09c0,.14-61,.26-136.2.26s-136.21-.12-136.21-.26,61-.26,136.21-.26S340.62,209.94,340.62,210.09Z"/><rect class="cls-6" x="49.93" y="364.3" width="313.59" height="1"/><rect class="cls-6" x="90.55" y="289.47" width="59.58" height="3.99"/><rect class="cls-6" x="167.5" y="234.14" width="59.58" height="3.99"/><path class="cls-6" d="M315.7,249c0,.14-33.18.26-74.1.26s-74.1-.12-74.1-.26,33.17-.26,74.1-.26S315.7,248.84,315.7,249Z"/><path class="cls-6" d="M315.7,257.68c0,.15-33.18.26-74.1.26s-74.1-.11-74.1-.26,33.17-.26,74.1-.26S315.7,257.54,315.7,257.68Z"/><path class="cls-6" d="M315.7,266.39c0,.14-33.18.26-74.1.26s-74.1-.12-74.1-.26,33.17-.26,74.1-.26S315.7,266.24,315.7,266.39Z"/><path class="cls-6" d="M315.7,275.09c0,.14-33.18.26-74.1.26s-74.1-.12-74.1-.26,33.17-.26,74.1-.26S315.7,275,315.7,275.09Z"/><path class="cls-6" d="M315.7,283.79c0,.15-33.18.26-74.1.26s-74.1-.11-74.1-.26,33.17-.26,74.1-.26S315.7,283.65,315.7,283.79Z"/><path class="cls-6" d="M225.35,292.5c0,.14-12.95.26-28.92.26s-28.93-.12-28.93-.26,12.95-.26,28.93-.26S225.35,292.35,225.35,292.5Z"/><path class="cls-6" d="M314.61,309.39c0,.14-21.8.26-48.7.26s-48.7-.12-48.7-.26,21.8-.26,48.7-.26S314.61,309.24,314.61,309.39Z"/><path class="cls-6" d="M314.61,318.63c0,.14-21.8.26-48.7.26s-48.7-.12-48.7-.26,21.8-.26,48.7-.26S314.61,318.48,314.61,318.63Z"/><path class="cls-6" d="M314.61,327.86c0,.15-21.8.26-48.7.26s-48.7-.11-48.7-.26,21.8-.26,48.7-.26S314.61,327.72,314.61,327.86Z"/><path class="cls-6" d="M314.61,337.1c0,.15-21.8.26-48.7.26s-48.7-.11-48.7-.26,21.8-.26,48.7-.26S314.61,337,314.61,337.1Z"/><path class="cls-6" d="M150.28,308.5c0,.15-13,.26-29,.26s-29-.11-29-.26,13-.26,29-.26S150.28,308.36,150.28,308.5Z"/><path class="cls-6" d="M150.28,315.76c0,.14-13,.26-29,.26s-29-.12-29-.26,13-.26,29-.26S150.28,315.61,150.28,315.76Z"/><path class="cls-6" d="M150.28,323c0,.15-13,.26-29,.26s-29-.11-29-.26,13-.26,29-.26S150.28,322.87,150.28,323Z"/><path class="cls-6" d="M150.28,330.27c0,.14-13,.26-29,.26s-29-.12-29-.26,13-.26,29-.26S150.28,330.13,150.28,330.27Z"/><path class="cls-6" d="M150.28,337.52c0,.15-13,.26-29,.26s-29-.11-29-.26,13-.26,29-.26S150.28,337.38,150.28,337.52Z"/><rect class="cls-8" x="90.55" y="221.11" width="59.73" height="57.79"/><polygon class="cls-4" points="95.18 273.96 111.7 244.22 125.22 263.23 133.43 253.13 145.65 273.96 95.18 273.96"/><path class="cls-4" d="M131,238.44a4.3,4.3,0,1,1-4.3-4.3A4.29,4.29,0,0,1,131,238.44Z"/><path class="cls-6" d="M145.65,274.12a1.35,1.35,0,0,1,0-.24c0-.17,0-.39,0-.67,0-.62,0-1.49,0-2.6,0-2.29,0-5.61-.06-9.82,0-8.44-.08-20.46-.13-34.89l.25.24-50.47,0,.28-.27h0v13c0,4.25,0,8.41,0,12.45,0,8.1,0,15.75,0,22.79l-.24-.25,36.49.13,10.29.06,2.73,0h.71l.25,0h-.22l-.69,0-2.68,0-10.23.07-36.65.13h-.25v-.25c0-7,0-14.69,0-22.79,0-4,0-8.2,0-12.45v-13h0c-.25.25.35-.36.29-.29l50.47,0h.24v.24c0,14.5-.09,26.57-.12,35,0,4.18-.05,7.48-.07,9.76,0,1.09,0,2,0,2.55,0,.27,0,.48,0,.65A1.66,1.66,0,0,1,145.65,274.12Z"/><rect class="cls-8" x="167.47" y="304.98" width="42.27" height="40.9"/><polygon class="cls-4" points="170.74 342.38 182.44 321.33 192 334.78 197.81 327.64 206.46 342.38 170.74 342.38"/><path class="cls-4" d="M196.08,317.24a3,3,0,1,1-3.05-3A3,3,0,0,1,196.08,317.24Z"/><path class="cls-6" d="M206.46,342.49a1.15,1.15,0,0,1,0-.17c0-.12,0-.28,0-.47,0-.44,0-1.05,0-1.84,0-1.63,0-4,0-6.95,0-6-.06-14.48-.09-24.69l.17.17-35.71,0c-.05,0,.37-.38.19-.2h0v18c0,5.72,0,11.14,0,16.12l-.18-.18,25.83.09,7.28.05,1.93,0h0l-1.89,0-7.25.05-25.94.09h-.17v-.18c0-5,0-10.4,0-16.12q0-4.31,0-8.82v-9.17h0l.21-.21,35.71,0h.17v.18c0,10.26-.06,18.8-.08,24.8,0,3,0,5.29-.05,6.91,0,.77,0,1.38,0,1.8,0,.19,0,.34,0,.46A.85.85,0,0,1,206.46,342.49Z"/><path class="cls-4" d="M562.7,364.57l-10-1.19-2.34,18.75L565,384l.22-1.16c.93-5.13,4.38-26.17,3.77-29.76C568.28,349.1,562.7,364.57,562.7,364.57Z"/><path class="cls-5" d="M568.1,351.76c.18,0-.51,7.05-1.53,15.7s-2,15.65-2.18,15.63.51-7,1.53-15.7S567.93,351.74,568.1,351.76Z"/><path class="cls-5" d="M564.79,363.69c-.11.15-.63-.05-1.1-.52s-.69-1-.55-1.09.56.21,1,.63S564.89,363.55,564.79,363.69Z"/><path class="cls-5" d="M565.59,362.58c-.09.15-.68,0-1.26-.45s-.89-1-.77-1.09.62.17,1.16.58S565.67,362.42,565.59,362.58Z"/><path class="cls-5" d="M565,377.43c0,.08-.25.33-.75.69a12.65,12.65,0,0,0-1.77,1.47,4.58,4.58,0,0,0-1.08,1.93c-.13.55-.1.93-.2,1s-.28-.35-.25-1a3.8,3.8,0,0,1,1.06-2.29,6.62,6.62,0,0,1,2-1.43C564.58,377.47,565,377.36,565,377.43Z"/><path class="cls-5" d="M562.91,363.41c.16-.07.48.3.6.86s0,1-.18,1-.34-.4-.45-.89S562.74,363.49,562.91,363.41Z"/><path class="cls-5" d="M561.91,363.59c.18,0,.27.53.2,1.16s-.26,1.12-.44,1.09-.26-.55-.2-1.16S561.73,363.59,561.91,363.59Z"/><polygon class="cls-5" points="556.6 383.62 501.17 378 386.24 380.57 416.8 355.93 493.51 352.24 560.58 361.48 556.6 383.62"/><path class="cls-6" d="M462.91,368.23c0,.14-10.79.26-24.09.26s-24.1-.12-24.1-.26,10.79-.26,24.1-.26S462.91,368.08,462.91,368.23Z"/><polygon points="457.55 353.97 461.49 378.76 469.05 378.76 463.3 353.69 457.55 353.97"/><path class="cls-4" d="M486.81,379.08l-1.12-10-18.78,2,1.48,14.67,1.17-.05c5.22-.25,26.49-1.68,29.85-3.09C503.15,381,486.81,379.08,486.81,379.08Z"/><path class="cls-5" d="M499.75,381.61c0,.17-7,1.1-15.65,2.07s-15.69,1.61-15.71,1.44,7-1.11,15.64-2.08S499.73,381.43,499.75,381.61Z"/><path class="cls-5" d="M487.37,381.09c-.16-.06-.09-.62.26-1.19s.8-.89.93-.78-.07.59-.38,1.12S487.54,381.16,487.37,381.09Z"/><path class="cls-5" d="M488.64,381.62c-.17-.05-.15-.66.15-1.33s.74-1.09.89-1,0,.64-.3,1.26S488.81,381.67,488.64,381.62Z"/><path class="cls-5" d="M474,384.42c-.07.06-.38-.17-.84-.57a13.05,13.05,0,0,0-1.84-1.4,4.49,4.49,0,0,0-2.12-.6c-.57,0-.93.11-1,0s.28-.36.94-.48a3.83,3.83,0,0,1,2.47.5,6.84,6.84,0,0,1,1.85,1.64C473.91,384,474.1,384.36,474,384.42Z"/><path class="cls-5" d="M487.22,379.2c.1.14-.19.54-.7.78s-1,.23-1,.06.31-.42.76-.64S487.11,379.06,487.22,379.2Z"/><path class="cls-5" d="M486.81,378.27c0,.17-.45.38-1.08.46s-1.15,0-1.16-.18.48-.39,1.08-.46S486.78,378.09,486.81,378.27Z"/><path class="cls-10" d="M376.87,264.7l16-.29c.21-1.86.52-9.07.52-9.07s6.7-.62,7.19-7.25.28-21.94.28-21.94h0a23.12,23.12,0,0,0-23.35,1.49l-1,.69Z"/><path class="cls-5" d="M398.66,237.46a1,1,0,0,1,1.39-1.35,1,1,0,1,1-1.39,1.35Z"/><path class="cls-5" d="M400.36,236.05c-.11.11-.73-.44-1.64-.5s-1.61.37-1.7.25.07-.26.37-.46a2.26,2.26,0,0,1,1.37-.34,2.21,2.21,0,0,1,1.3.54C400.33,235.78,400.42,236,400.36,236.05Z"/><path class="cls-5" d="M389.79,236.19a1,1,0,0,1,.23,1.35,1,1,0,0,1-1.58-1.11A1,1,0,0,1,389.79,236.19Z"/><path class="cls-5" d="M390.39,236.24c-.11.11-.73-.43-1.64-.49s-1.61.37-1.7.24.07-.25.37-.46a2.26,2.26,0,0,1,1.37-.34,2.33,2.33,0,0,1,1.3.54C390.36,236,390.44,236.19,390.39,236.24Z"/><path class="cls-5" d="M393.59,244a4.54,4.54,0,0,1,1.5-.22c.24,0,.43-.05.45-.18a1.16,1.16,0,0,0-.13-.69c-.19-.62-.39-1.25-.6-1.91a26,26,0,0,1-1.27-5,24.45,24.45,0,0,1,1.76,4.82c.2.66.39,1.29.57,1.91a1.55,1.55,0,0,1,.07,1,.62.62,0,0,1-.43.35,1.55,1.55,0,0,1-.41,0A4.06,4.06,0,0,1,393.59,244Z"/><path class="cls-7" d="M390.56,244.83c-.92-.63,2.53,1.55,4.4,1.58a2.52,2.52,0,0,1-3,.82C390,246.38,390.56,244.83,390.56,244.83Z"/><path class="cls-11" d="M393.44,255.25a15.45,15.45,0,0,1-8.5-3s1.75,4.91,8.41,4.72Z"/><path class="cls-5" d="M401.38,223.77a2.49,2.49,0,1,0-1.38-4.62,7.29,7.29,0,0,0,1.9-2.39,2.49,2.49,0,0,0-.47-2.84,2.78,2.78,0,0,0-2.87-.17c-1.41.6-2.52,1.79-4,2.29s-3.07.26-4.62.33A8.2,8.2,0,0,0,385.2,218a5.49,5.49,0,0,0-2.13,4.46c-2.17-.27-4.57-.3-6.28,1.05a6.23,6.23,0,0,0-2.08,4.91,18.28,18.28,0,0,0,1.29,5.34h0a3.82,3.82,0,0,0,.66,1.39l.81,4.76,3-.06-.2-9.91s-.29-4.17,3.3-3.81,8.47,4.42,15.46,3.4a7.52,7.52,0,0,0,3.26-.94,3.21,3.21,0,0,0,1.5-2.9A2.18,2.18,0,0,0,401.38,223.77Z"/><path class="cls-10" d="M377.79,234.22c-.15-.05-4.92-.68-4.47,5s6,3.32,6,3.15S377.79,234.22,377.79,234.22Z"/><path class="cls-11" d="M377.43,240.5s-.09.08-.25.17a1,1,0,0,1-.74.07,2.44,2.44,0,0,1-1.3-2.09,3.34,3.34,0,0,1,.16-1.43,1.13,1.13,0,0,1,.68-.81.49.49,0,0,1,.6.22c.09.15.07.27.1.28s.11-.11.05-.34a.64.64,0,0,0-.25-.33.75.75,0,0,0-.56-.1,1.39,1.39,0,0,0-1,1,3.5,3.5,0,0,0-.21,1.6,2.55,2.55,0,0,0,1.63,2.32,1,1,0,0,0,.88-.22C377.43,240.64,377.45,240.51,377.43,240.5Z"/><path class="cls-6" d="M363.89,363.6c3,4.47,21.2,31.85,42.91,11.95C434.47,350.17,456.39,328,456.39,328l8.22,50.15,25.77-1.39s-10-74.68-16.39-81.47c-7.08-7.57-13.61-6.93-69.28,37Z"/><polygon class="cls-5" points="456.03 278.53 480.09 260.98 481.27 262.86 457.37 280.63 456.03 278.53"/><path class="cls-10" d="M462,278s3.23-8.4,3.95-10.19,2-4.9,2.42-5,2.14.21-.06,5.55,2.6,2.08,2.6,2.08l4.63-3.32s3.67,10.94,1.58,14.23a53.15,53.15,0,0,1-5.49,7Z"/><path class="cls-4" d="M462.25,277c-.48-1.1-31.07,25.93-37.16,26.85l-17.84-23.24s-3.71-5.87-11.66-15.93c-5.13-6.5-19.3-5.15-23,2.76-6.32,13.44-6.39,28.39-9.76,57.46l-1.43,19.62a69.23,69.23,0,0,0,.19,12.55c.54,4.88,1.65,10,3.91,9.28l40.8-33.74,1.31-15.32c8.58,8.7,11.25,10.52,15.71,9.83,11.24-1.74,50.54-37.09,50.54-37.09S462.72,278.12,462.25,277Z"/><path class="cls-5" d="M468.55,295a11.86,11.86,0,0,1-2.2-1.72,47.51,47.51,0,0,1-4.69-4.81,48.86,48.86,0,0,1-4-5.4,12.37,12.37,0,0,1-1.35-2.44,18,18,0,0,1,1.65,2.24c1,1.39,2.41,3.28,4.1,5.27s3.33,3.67,4.54,4.87A18.74,18.74,0,0,1,468.55,295Z"/><path class="cls-5" d="M423.35,313.08a43.19,43.19,0,0,1,1.64-9.21,21.47,21.47,0,0,1-.56,4.65A20.51,20.51,0,0,1,423.35,313.08Z"/><path class="cls-5" d="M427.25,312.12a16.72,16.72,0,0,1-1.35-4,17,17,0,0,1-.85-4.13,17.48,17.48,0,0,1,1.35,4A17,17,0,0,1,427.25,312.12Z"/><path class="cls-5" d="M383.07,284.72a10.56,10.56,0,0,1,1,1.29l2.67,3.61c2.25,3.05,5.38,7.25,8.89,11.85l9,11.73,2.73,3.57a9.92,9.92,0,0,1,.95,1.35,9.92,9.92,0,0,1-1.11-1.22c-.68-.81-1.66-2-2.86-3.47-2.39-2.94-5.66-7-9.17-11.65s-6.61-8.83-8.78-11.94c-1.09-1.56-2-2.83-2.54-3.71A10.33,10.33,0,0,1,383.07,284.72Z"/><path class="cls-5" d="M377.85,304.47a25.12,25.12,0,0,1-5.39-4.83,25.12,25.12,0,0,1,5.39,4.83Z"/><path class="cls-5" d="M374.34,315.75a12.47,12.47,0,0,1-1.79,3.11,12.24,12.24,0,0,1-2.22,2.82,13.29,13.29,0,0,1,1.79-3.11A12.56,12.56,0,0,1,374.34,315.75Z"/><path class="cls-5" d="M379.27,331.29c-.11.1-1-.8-2-2a8,8,0,0,1-1.63-2.34c.11-.1,1,.8,2,2A8,8,0,0,1,379.27,331.29Z"/><path class="cls-5" d="M369.75,341.27a15.85,15.85,0,0,1-4.77,3.22,8.32,8.32,0,0,1,2.24-1.83A8.11,8.11,0,0,1,369.75,341.27Z"/><path class="cls-5" d="M383.06,343.9a6.43,6.43,0,0,1-2.66-2.13,6.55,6.55,0,0,1-1.67-3c.14-.07.87,1.24,2.07,2.63S383.15,343.78,383.06,343.9Z"/><path class="cls-5" d="M395.47,334.48a12.48,12.48,0,0,1-2.56,2.52,12.31,12.31,0,0,1-2.9,2.13,12.81,12.81,0,0,1,2.56-2.52A12.54,12.54,0,0,1,395.47,334.48Z"/><path class="cls-5" d="M369.93,352.68a5.25,5.25,0,0,1-2.26-1.6,5.13,5.13,0,0,1-1.55-2.31c.12-.08.88.88,1.92,1.94S370,352.56,369.93,352.68Z"/><path class="cls-5" d="M397.68,325.59a6.27,6.27,0,0,1-2.74,1,6.35,6.35,0,0,1-2.93.18,58.77,58.77,0,0,1,5.67-1.22Z"/><path class="cls-5" d="M388.44,315.07a17.12,17.12,0,0,1-1,3.56,31.43,31.43,0,0,1-1.17,3.39l-.11,0c0-.05.06-.08.08-.08s0,0,0,.11l-.11,0a15.35,15.35,0,0,1,.79-3.52A10.86,10.86,0,0,1,388.44,315.07Z"/><path class="cls-5" d="M392.33,308.39a23.1,23.1,0,0,1-5.61-4.06,23.1,23.1,0,0,1,5.61,4.06Z"/><path class="cls-5" d="M384.39,293.69a7.54,7.54,0,0,1-1.48,2.7,7.4,7.4,0,0,1-2.1,2.25,35.12,35.12,0,0,1,3.58-4.95Z"/><path class="cls-5" d="M372.18,291.69a10.66,10.66,0,0,1,0-3.38,10.83,10.83,0,0,1,.54-3.35,11.5,11.5,0,0,1,0,3.39A11.37,11.37,0,0,1,372.18,291.69Z"/><path class="cls-5" d="M367.43,313.73a12.62,12.62,0,0,1-.32-3.64,12.4,12.4,0,0,1,.2-3.65,25.68,25.68,0,0,1,.12,7.29Z"/><path class="cls-5" d="M366.76,334.88a5.42,5.42,0,0,1-.89-2.17,5.33,5.33,0,0,1-.39-2.32,5.68,5.68,0,0,1,.89,2.17A5.51,5.51,0,0,1,366.76,334.88Z"/><path class="cls-5" d="M383.6,275.2a23.18,23.18,0,0,1-2.58,2.55,21.46,21.46,0,0,1-2.61,2.5,13.68,13.68,0,0,1,5.19-5.05Z"/><path class="cls-5" d="M376.45,272.81a10.68,10.68,0,0,1-.12-3.31,11,11,0,0,1,.4-3.29,21.06,21.06,0,0,1-.28,6.6Z"/><path class="cls-5" d="M394,270.43a14.82,14.82,0,0,1-2.77-1.77,16.25,16.25,0,0,1-2.67-1.93,8,8,0,0,1,3,1.5A8.26,8.26,0,0,1,394,270.43Z"/><path class="cls-5" d="M390.17,282.92a11.72,11.72,0,0,1-.34-3.51,12.58,12.58,0,0,1,.19-3.51,11.45,11.45,0,0,1,.33,3.5A12.47,12.47,0,0,1,390.17,282.92Z"/><path class="cls-5" d="M400.43,290.22a15.48,15.48,0,0,1-3-.67,15.3,15.3,0,0,1-3-.78,10.74,10.74,0,0,1,6,1.45Z"/><path class="cls-5" d="M401.12,282.77a17.13,17.13,0,0,1-.05-5.89,8.53,8.53,0,0,1,.29,2.95A8.38,8.38,0,0,1,401.12,282.77Z"/><path class="cls-5" d="M408.94,295.26a13.69,13.69,0,0,1-.42-3.7,13.84,13.84,0,0,1,.09-3.73,13,13,0,0,1,.43,3.7A13.62,13.62,0,0,1,408.94,295.26Z"/><path class="cls-5" d="M402.93,299.49c-.11.09-.92-.64-1.81-1.65s-1.53-1.9-1.42-2,.92.64,1.81,1.65S403,299.39,402.93,299.49Z"/><path class="cls-5" d="M410.53,305.24a8.65,8.65,0,0,1-2.92.48,8.77,8.77,0,0,1-3,0,16.88,16.88,0,0,1,5.89-.44Z"/><path class="cls-5" d="M416.25,308.17a11,11,0,0,1-.38-3.29,10.38,10.38,0,0,1,.14-3.31,11,11,0,0,1,.38,3.29A10.38,10.38,0,0,1,416.25,308.17Z"/><path class="cls-5" d="M421.9,319.11a9.6,9.6,0,0,1-3.64,0,9.82,9.82,0,0,1-3.53-.83,17.88,17.88,0,0,1,3.59.31A20.44,20.44,0,0,1,421.9,319.11Z"/><path class="cls-5" d="M431.59,314.06a11.57,11.57,0,0,1-.87,3.32,11.76,11.76,0,0,1-1.36,3.14,11.09,11.09,0,0,1,.87-3.31A11.21,11.21,0,0,1,431.59,314.06Z"/><path class="cls-5" d="M438.59,305.23a9.76,9.76,0,0,1-3.09-.59,9.6,9.6,0,0,1-2.95-1.08,9.57,9.57,0,0,1,3.09.58A9.73,9.73,0,0,1,438.59,305.23Z"/><path class="cls-5" d="M444.2,308.59a19,19,0,0,1-4.68,4.15,9.9,9.9,0,0,1,2.17-2.27A9.33,9.33,0,0,1,444.2,308.59Z"/><path class="cls-5" d="M446.46,300.31a8,8,0,0,1-1-3.22,8.1,8.1,0,0,1-.14-3.37,16.87,16.87,0,0,1,.65,3.28A17.41,17.41,0,0,1,446.46,300.31Z"/><path class="cls-5" d="M457.15,298.41a32.65,32.65,0,0,1-3.1,3.06,34.07,34.07,0,0,1-3.14,3,12.68,12.68,0,0,1,2.77-3.4A13,13,0,0,1,457.15,298.41Z"/><path class="cls-5" d="M458.21,294.61a12.05,12.05,0,0,1-3.31-1,11.74,11.74,0,0,1-3.12-1.46,11.42,11.42,0,0,1,3.31,1A11.58,11.58,0,0,1,458.21,294.61Z"/><path class="cls-5" d="M457.19,290.47a16.25,16.25,0,0,1-1.6-5.56,8.14,8.14,0,0,1,1.05,2.71A8.24,8.24,0,0,1,457.19,290.47Z"/><path class="cls-5" d="M401.21,319.28a8.16,8.16,0,0,1-1.88-2.2,8.57,8.57,0,0,1-1.46-2.5c.12-.09,1,.9,1.88,2.2A7.93,7.93,0,0,1,401.21,319.28Z"/><path class="cls-5" d="M477.45,369.65a1.83,1.83,0,0,1-.08-.42c0-.31-.1-.73-.17-1.26-.15-1.14-.37-2.76-.64-4.84-.57-4.21-1.38-10.3-2.59-17.78s-2.82-16.38-5.1-26.14a14,14,0,0,0-1.2-3.53,10.87,10.87,0,0,0-2.4-2.93A10.34,10.34,0,0,0,458,310.4a9.49,9.49,0,0,0-3.85,1,25,25,0,0,0-3.44,2.32l-6.88,5.11c-9.26,6.95-17.93,13.76-25.66,20.15S403.67,351.39,398,356.46c-2.86,2.46-5.91,4.44-9,4.75a9.13,9.13,0,0,1-4.2-.5A12.86,12.86,0,0,1,381.7,359a26.8,26.8,0,0,1-3.6-3.32l-.85-.94a3.78,3.78,0,0,1-.28-.34,3.13,3.13,0,0,1,.32.3c.21.23.51.53.88.91a28.5,28.5,0,0,0,3.65,3.22,12.25,12.25,0,0,0,3.08,1.64,8.76,8.76,0,0,0,4.07.45c3-.33,6-2.27,8.8-4.73,5.61-5.1,12.34-11.15,20.08-17.54s16.39-13.24,25.66-20.19l6.88-5.12a26.68,26.68,0,0,1,3.52-2.36,10.15,10.15,0,0,1,4-1.09,10.84,10.84,0,0,1,7.63,2.48,11.36,11.36,0,0,1,2.51,3.07,14,14,0,0,1,1.23,3.66c2.27,9.78,3.83,18.69,5,26.19s1.93,13.6,2.43,17.81c.23,2.09.42,3.72.54,4.86.05.53.09,1,.13,1.26A2.79,2.79,0,0,1,477.45,369.65Z"/><path class="cls-5" d="M489.13,369.1a3.83,3.83,0,0,1-1,.15c-.65.07-1.59.15-2.75.23-2.33.17-5.54.33-9.09.49l-9.09.39-2.76.1a3.32,3.32,0,0,1-1,0,3.7,3.7,0,0,1,1-.17c.64-.08,1.58-.17,2.74-.27,2.33-.19,5.54-.39,9.09-.54l9.1-.33,2.76-.07A3.66,3.66,0,0,1,489.13,369.1Z"/><path class="cls-5" d="M463.51,320.15a34.28,34.28,0,0,1-8.75,9.53c-.1-.11,2-2.07,4.45-4.7S463.38,320.06,463.51,320.15Z"/><path class="cls-5" d="M464.47,323.19a34.45,34.45,0,0,1-4.26,2.78,33.86,33.86,0,0,1-4.4,2.57,33,33,0,0,1,8.66-5.35Z"/><path class="cls-6" d="M548.72,371.68a3.51,3.51,0,0,1-.61,0l-1.74-.14-6.4-.6-21.09-2.2c-8.24-.87-15.68-1.83-21.09-2.09-2.7-.15-4.89-.13-6.41-.08l-1.74.08a2.36,2.36,0,0,1-.61,0,2.1,2.1,0,0,1,.6-.11c.4-.06,1-.11,1.74-.17a57.32,57.32,0,0,1,6.44-.09c5.44.17,12.89,1.07,21.12,1.94L540,370.55l6.38.77,1.73.24A2.43,2.43,0,0,1,548.72,371.68Z"/><path class="cls-6" d="M547.45,382.85c-.14,0,.31-5,1-11.2s1.39-11.16,1.53-11.15-.31,5-1,11.21S547.6,382.87,547.45,382.85Z"/></g></g></svg>