<svg xmlns="http://www.w3.org/2000/svg" xmlns:xlink="http://www.w3.org/1999/xlink" viewBox="0 0 653.66 473.38"><defs><style>.cls-1{isolation:isolate;}.cls-2{fill:#c3e1cc;}.cls-12,.cls-13,.cls-17,.cls-20,.cls-26,.cls-28,.cls-3,.cls-36,.cls-37{fill:none;}.cls-12,.cls-20,.cls-28,.cls-3{stroke:#c3e1cc;}.cls-12,.cls-13,.cls-17,.cls-20,.cls-28,.cls-3{stroke-miterlimit:10;}.cls-4{fill:#f08d21;}.cls-5{opacity:0.38;fill:url(#linear-gradient);}.cls-6,.cls-9{fill:#1d1d1b;}.cls-6{opacity:0.44;}.cls-7{fill:#dd6926;}.cls-8{fill:#50200b;}.cls-9{opacity:0.27;}.cls-10,.cls-11,.cls-39{fill:#fff;}.cls-10{opacity:0.18;}.cls-11{opacity:0.48;}.cls-12{stroke-width:0.98px;}.cls-13{stroke:#009a9f;stroke-width:2.08px;}.cls-14{fill:#e31e26;}.cls-15{fill:#c7842a;}.cls-16{fill:#9d6026;}.cls-17{stroke:#c7842a;stroke-width:2.08px;}.cls-17,.cls-26,.cls-36,.cls-37{stroke-linecap:round;}.cls-18{fill:#77ccf3;}.cls-19{fill:#006f9f;opacity:0.63;}.cls-20{stroke-width:1.07px;}.cls-21{fill:#026ea1;}.cls-22{fill:#c79f6d;}.cls-23{fill:#ecd6a7;}.cls-24{fill:#fffdea;}.cls-25{fill:#ede7be;}.cls-26{stroke:#a36026;stroke-width:1.16px;}.cls-26,.cls-36,.cls-37{stroke-linejoin:round;}.cls-27{fill:#e21e26;}.cls-28{stroke-width:1.01px;}.cls-29{fill:#fed600;}.cls-30{fill:#f6ab1b;}.cls-31{fill:#c5802a;}.cls-32{fill:#ffebc5;}.cls-33{fill:#e3c399;}.cls-34{fill:#36311c;}.cls-35{fill:#bace32;}.cls-36,.cls-37{stroke:#ede30e;}.cls-36{stroke-width:1.03px;}.cls-37{stroke-width:2.05px;}.cls-38{fill:#40bbd0;opacity:0.45;mix-blend-mode:multiply;}</style><linearGradient id="linear-gradient" x1="-25.86" y1="-57.2" x2="-13.52" y2="-74.01" gradientTransform="matrix(-0.71, -0.7, 0.7, -0.71, 477.45, 364.03)" gradientUnits="userSpaceOnUse"><stop offset="0" stop-color="#1d1d1b"/><stop offset="1" stop-color="#1d1d1b" stop-opacity="0"/></linearGradient></defs><title>Asset 1</title><g class="cls-1"><g id="Layer_2" data-name="Layer 2"><g id="Layer_1-2" data-name="Layer 1"><path class="cls-2" d="M293.66,397.22a7.82,7.82,0,1,1-7.81-7.82A7.81,7.81,0,0,1,293.66,397.22Z"/><path class="cls-2" d="M580.34,93a6.84,6.84,0,1,1-6.84-6.84A6.84,6.84,0,0,1,580.34,93Z"/><circle class="cls-2" cx="461.94" cy="229.31" r="6.84"/><path class="cls-2" d="M262.87,57.71A11.72,11.72,0,1,1,251.15,46,11.72,11.72,0,0,1,262.87,57.71Z"/><path class="cls-2" d="M596.51,338.52a3.91,3.91,0,1,1-3.91-3.9A3.91,3.91,0,0,1,596.51,338.52Z"/><path class="cls-2" d="M101.84,277.42a3.91,3.91,0,1,1-3.91-3.91A3.91,3.91,0,0,1,101.84,277.42Z"/><circle class="cls-2" cx="488.47" cy="385.7" r="65.36"/><circle class="cls-3" cx="488.47" cy="385.7" r="71.2" transform="translate(2.31 774.3) rotate(-76.93)"/><path class="cls-4" d="M466.66,434.86l-28.83,6.87a2.43,2.43,0,0,1-3-3l6.34-28.95Z"/><path class="cls-5" d="M442,440.75l24.7-5.89-25.5-25-2.07,9.48C447.64,423.44,448.55,433.85,442,440.75Z"/><path class="cls-4" d="M518.24,326.58a5.16,5.16,0,0,1,5.23-1.32c3.45,1.08,9.3,3.69,15.62,9.89s8.94,11.89,10,15.27a5.17,5.17,0,0,1-1.24,5.21l-78,79.43a3.33,3.33,0,0,1-3.44.83,42.58,42.58,0,0,1-16.06-10.05,46.83,46.83,0,0,1-10.81-16.38,3.34,3.34,0,0,1,.74-3.54Z"/><path class="cls-6" d="M525.64,348.85c8.4,8.25,11.39,14.82,12.21,17l5.79-5.89c-.83-2.18-3.81-8.75-12.21-17S516.22,331.7,514,330.89l-5.78,5.89C510.44,337.59,517.21,340.57,525.64,348.85Z"/><path class="cls-7" d="M512.6,331.27s7.84,2.17,18.19,12.33,12.48,17.79,12.48,17.79l-66.51,67.74s-8.15-3.37-17.37-12.42a69.18,69.18,0,0,1-13.3-17.7Z"/><path class="cls-8" d="M479.34,426.5s-8.15-3.36-17.37-12.42a69.18,69.18,0,0,1-13.3-17.7l2-2a69.37,69.37,0,0,0,13.3,17.7c9.22,9.05,17.37,12.41,17.37,12.41Z"/><path class="cls-8" d="M482.82,423s-8.15-3.36-17.37-12.41a69.37,69.37,0,0,1-13.3-17.7l2.7-2.75a69.37,69.37,0,0,0,13.3,17.7c9.22,9,17.37,12.41,17.37,12.41Z"/><path class="cls-8" d="M539.63,365.09S536.12,357,526.9,348A69.24,69.24,0,0,0,509,335c-.16-.16-2,2-2,2a69.24,69.24,0,0,1,17.94,13c9.22,9.06,12.73,17.15,12.73,17.15Z"/><path class="cls-8" d="M536.15,368.64s-3.51-8.09-12.73-17.15a69.42,69.42,0,0,0-17.94-13l-2.7,2.75a69.24,69.24,0,0,1,17.94,13c9.22,9.06,12.73,17.15,12.73,17.15Z"/><path class="cls-9" d="M466.47,435.89a3.33,3.33,0,0,0,3.44-.83l6.14-6.26.71.33,66.51-67.74a6.8,6.8,0,0,0-.27-.78l4.89-5a5.17,5.17,0,0,0,1.24-5.21,32.24,32.24,0,0,0-3.31-7l-87.17,88.78A39.72,39.72,0,0,0,466.47,435.89Z"/><path class="cls-10" d="M446.44,399.7l-6.1,6.22a3.34,3.34,0,0,0-.74,3.54,40.66,40.66,0,0,0,2,4.41l85.59-87.17a30.75,30.75,0,0,0-3.7-1.44,5.16,5.16,0,0,0-5.23,1.32l-4.87,4.95c-.5-.19-.77-.26-.77-.26L446.09,399S446.21,399.26,446.44,399.7Z"/><path class="cls-11" d="M435.16,439l4-17.75S439.52,434,435.16,439Z"/><circle class="cls-2" cx="71.93" cy="112.52" r="65.36"/><circle class="cls-12" cx="71.93" cy="112.52" r="71.44"/><ellipse class="cls-13" cx="72.93" cy="111.71" rx="36.39" ry="20.84" transform="translate(-41.47 180.35) rotate(-87.82)"/><ellipse class="cls-13" cx="72.93" cy="111.71" rx="41.35" ry="18.35" transform="translate(-49.5 58.7) rotate(-33.45)"/><path class="cls-13" d="M88.11,100.44c17.14,14.88,24.24,32,15.86,38.2S74.9,137.86,57.76,123,33.51,91,41.9,84.78,71,85.57,88.11,100.44Z"/><path class="cls-14" d="M80.5,112a7.58,7.58,0,1,1-7.29-7.56A7.44,7.44,0,0,1,80.5,112Z"/><circle class="cls-2" cx="461.94" cy="73.15" r="65.36" transform="translate(9.09 190.04) rotate(-23.47)"/><circle class="cls-3" cx="461.94" cy="73.15" r="72.65" transform="translate(6.15 178.02) rotate(-21.96)"/><path class="cls-15" d="M432.78,121.45,471.44,130a22.24,22.24,0,0,0-17.07-17C442.42,110.18,432.78,121.45,432.78,121.45Z"/><path class="cls-16" d="M454.36,113a17.32,17.32,0,0,0-3.06-.39c9.59,4.62,9.16,10.63,6.67,14.45l13.47,3A22.24,22.24,0,0,0,454.36,113Z"/><path class="cls-17" d="M423.84,94.18A47.47,47.47,0,1,0,467,18.73"/><path class="cls-18" d="M497.47,53.56a38.14,38.14,0,1,1-48.41-23.81A38.14,38.14,0,0,1,497.47,53.56Z"/><path class="cls-19" d="M486.08,77.89c.38-.7.73-1.38,1.05-2a60.5,60.5,0,0,0,5.22-15.81l7.07,4.07a37.63,37.63,0,0,0-.63-5.24L493,55.55a48.14,48.14,0,0,0-.13-11.09,37.75,37.75,0,0,0-6.31-7.18,34.15,34.15,0,0,1,2.42,16L476.24,45.9l6.5-11.57a37.1,37.1,0,0,0-3.63-2.18l-6.54,11.64-14.86-8.55A41.52,41.52,0,0,1,476.76,31a38.25,38.25,0,0,0-11-3,44.06,44.06,0,0,0-12.25,4.81l-5-2.86a39,39,0,0,0-4.8,2.12l5.82,3.34a45.69,45.69,0,0,0-12.44,14.13l-7.71-4.47a38.2,38.2,0,0,0-2.12,3.66l7.88,4.56a54.13,54.13,0,0,0-4.84,18.38l-7.06-4.06a40.91,40.91,0,0,0,.63,5.24l6.24,3.6a49,49,0,0,0,2.16,14.08,38.06,38.06,0,0,0,7.7,6.88,39.63,39.63,0,0,1-5.57-18.5l13.93,8-6.54,11.66a40.36,40.36,0,0,0,3.75,2L452,89l11.65,6.71a48.74,48.74,0,0,1-15.4,5.92,37.56,37.56,0,0,0,8.48,2,51.81,51.81,0,0,0,11.07-5.54l6.31,3.63a38.5,38.5,0,0,0,4.81-2.12l-7.36-4.23a56.48,56.48,0,0,0,12.38-13.89l9.19,5.32a37,37,0,0,0,2.14-3.65ZM453.52,37.71l17,9.77-9.07,16.14-20.68-12A42.49,42.49,0,0,1,453.52,37.71Zm-3.11,45.53-16-9.23a49.85,49.85,0,0,1,4.45-18.59l20.54,11.89Zm17.17,9.89-13.51-7.78L463,69.43l17.26,10A52,52,0,0,1,467.58,93.13ZM483.33,74c-.28.56-.58,1.16-.91,1.77l-17.33-10,9.07-16.15,14.31,8.24A56.73,56.73,0,0,1,483.33,74Z"/><path class="cls-19" d="M497.47,53.56a38.09,38.09,0,0,0-3-6.58,38.11,38.11,0,0,1-70.67,25.39,38.13,38.13,0,1,0,73.65-18.81Z"/><circle class="cls-2" cx="583.39" cy="223.56" r="65.36" transform="translate(233.56 741.19) rotate(-76.91)"/><circle class="cls-20" cx="583.39" cy="223.56" r="69.74" transform="translate(233.67 741.27) rotate(-76.93)"/><polygon class="cls-21" points="628.68 277.76 573.71 254.03 592.62 194.19 651.41 205.84 628.68 277.76"/><polygon class="cls-21" points="514.24 241.89 573.69 254.02 592.6 194.18 536.97 169.96 514.24 241.89"/><polyline class="cls-22" points="544.13 176.01 538.81 173.61 518.34 239.81 523.71 240.76"/><polygon class="cls-23" points="528.74 242.34 523.37 241.39 543.84 175.18 549.16 177.59 528.74 242.34"/><polyline class="cls-22" points="642.42 207.22 648.15 208.28 627.27 274.35 622.32 272.08"/><polygon class="cls-23" points="617.28 270.51 622.24 272.78 643.12 206.71 637.38 205.65 617.28 270.51"/><polygon class="cls-24" points="617.14 271.18 574.48 251.6 591.85 196.62 638.02 205.1 617.14 271.18"/><path class="cls-25" d="M598.52,197.85l-6.67-1.23-17.37,55,42.66,19.58,2.45-7.75C588.31,261.28,584.69,231.73,598.52,197.85Z"/><line class="cls-26" x1="600.23" y1="207.73" x2="624.16" y2="212.34"/><line class="cls-26" x1="597.69" y1="215.78" x2="621.28" y2="221.47"/><line class="cls-26" x1="595.14" y1="223.83" x2="618.4" y2="230.59"/><line class="cls-26" x1="592.6" y1="231.89" x2="615.91" y2="238.47"/><line class="cls-26" x1="590.05" y1="239.94" x2="613.08" y2="247.41"/><line class="cls-26" x1="587.51" y1="247.99" x2="610.08" y2="256.9"/><polygon class="cls-24" points="528.29 243.11 574.46 251.59 591.83 196.61 549.17 177.03 528.29 243.11"/><line class="cls-26" x1="578.59" y1="200.89" x2="556.35" y2="190.91"/><line class="cls-26" x1="576.05" y1="208.94" x2="553.47" y2="200.04"/><line class="cls-26" x1="573.5" y1="217" x2="550.59" y2="209.17"/><line class="cls-26" x1="570.96" y1="225.05" x2="548.1" y2="217.04"/><line class="cls-26" x1="568.41" y1="233.1" x2="545.27" y2="225.99"/><line class="cls-26" x1="565.87" y1="241.16" x2="542.27" y2="235.47"/><path class="cls-25" d="M574.46,251.59l17.37-55-6.27-2.88c-3.36,29.14-22.38,66.67-52.91,35.59l-4.36,13.79Z"/><path class="cls-22" d="M591.83,196.61c-.6,2.33-1.27,4.64-1.9,7l-2,6.92c-1.36,4.61-2.81,9.19-4.21,13.79s-2.94,9.15-4.47,13.7l-2.33,6.82c-.81,2.27-1.59,4.54-2.44,6.79.6-2.33,1.27-4.64,1.9-7l2-6.92c1.36-4.61,2.81-9.19,4.21-13.78s2.94-9.15,4.48-13.71l2.32-6.82C590.21,201.14,591,198.87,591.83,196.61Z"/><polygon class="cls-27" points="585.15 193.56 581.92 204.17 584.43 202.65 586.04 205.21 588.88 195.2 585.15 193.56"/><circle class="cls-2" cx="288.43" cy="228.08" r="93.71" transform="translate(-45.23 73.55) rotate(-13.48)"/><circle class="cls-28" cx="288.43" cy="228.08" r="101.29" transform="translate(-45.28 73.64) rotate(-13.5)"/><polygon class="cls-29" points="318.91 285.96 211.64 165.85 219.48 152.56 230.72 142.52 243.13 137.73 350.39 257.85 318.91 285.96"/><path class="cls-30" d="M229.66,143.47l-10.18,9.09-7.84,13.29L318.91,286l14.73-13.16C286.32,241.79,236.17,180.37,229.66,143.47Z"/><polygon class="cls-31" points="342.15 265.2 232.12 141.98 230.72 142.52 229.54 143.57 339.93 267.19 342.15 265.2"/><polygon class="cls-31" points="219.48 152.56 218.48 154.25 328.47 277.42 330.7 275.43 220.31 151.82 219.48 152.56"/><path class="cls-32" d="M318.91,286,359.18,302a1.83,1.83,0,0,0,2.44-2.17l-11.23-42-11.5,5.47-11.77,10.5Z"/><path class="cls-33" d="M361.42,299.09a94,94,0,0,1-31.05-28.17l-3.25,2.9L318.91,286,359.18,302a1.83,1.83,0,0,0,2.44-2.17Z"/><path class="cls-34" d="M361.62,299.84l-3.88-14.53c-5.24.58-10.14,4.37-13.56,10.72l15,6A1.83,1.83,0,0,0,361.62,299.84Z"/><circle class="cls-2" cx="143.69" cy="401.13" r="65.36" transform="translate(-61.45 27.68) rotate(-9.07)"/><circle class="cls-3" cx="143.69" cy="401.13" r="71.76"/><path class="cls-18" d="M150.92,383.37l-6.18-29L127.54,358l6.18,29-9,62.33a5.89,5.89,0,0,0,7.05,6.6l49-10.45a5.88,5.88,0,0,0,3.75-8.89Z"/><rect class="cls-18" x="120.94" y="346.18" width="28.3" height="10.14" rx="2.37" transform="translate(-70.23 35.86) rotate(-12.03)"/><path class="cls-35" d="M151.58,390.85l-15.39,3.28-7.13,55.23a2.27,2.27,0,0,0,2.71,2.51l47.38-10.1a2.26,2.26,0,0,0,1.46-3.39Z"/><path class="cls-36" d="M148.22,416.21a2.14,2.14,0,1,1-2.53-1.64A2.13,2.13,0,0,1,148.22,416.21Z"/><path class="cls-37" d="M150.23,430.76a3.81,3.81,0,1,1-4.53-2.94A3.81,3.81,0,0,1,150.23,430.76Z"/><path class="cls-36" d="M160.71,422.13a2.59,2.59,0,1,1-3.07-2A2.58,2.58,0,0,1,160.71,422.13Z"/><path class="cls-38" d="M139,397c.92-6.34,1.3-9.63.42-13.77s-4.25-23.33-4.25-23.33l10.31-2.19-.71-3.33L127.54,358l6.18,29-9,62.33a5.89,5.89,0,0,0,7.05,6.6l25-5.34C126.52,451.8,135.76,419.15,139,397Z"/><path class="cls-39" d="M156.37,398.81s12.07,23,22.79,36.5C176.07,428.38,160,404.09,156.37,398.81Z"/></g></g></g></svg>