<svg xmlns="http://www.w3.org/2000/svg" viewBox="0 0 704.59 662.22"><defs><style>.cls-1{fill:#f0a677;opacity:0.6;}.cls-2{fill:#c23b4a;}.cls-3{fill:#a7233a;}.cls-4{fill:#fff;}.cls-5{fill:#dcf1f5;}.cls-6{fill:#afdfe1;}.cls-7{fill:#dbb174;}.cls-8{fill:#fbe8bb;}.cls-9{fill:#eecd94;}.cls-10{fill:#010101;opacity:0.2;}.cls-11{fill:#9f6848;}.cls-12{font-size:27.64px;fill:#4e565c;font-family:Gilroy-ExtraBold, Gilroy ExtraBold;font-weight:800;letter-spacing:0.15em;}.cls-13{letter-spacing:0.18em;}</style></defs><title>Asset 1</title><g id="Layer_2" data-name="Layer 2"><g id="Layer_1-2" data-name="Layer 1"><circle class="cls-1" cx="351.16" cy="319" r="319"/><rect class="cls-2" x="450.99" y="341.72" width="250.16" height="273.84"/><rect class="cls-3" x="450.99" y="615.56" width="250.16" height="46.65"/><rect class="cls-4" x="452.83" y="295.27" width="245.29" height="6.37"/><rect class="cls-4" x="452.83" y="295.27" width="6.65" height="23.73"/><rect class="cls-4" x="691.48" y="295.27" width="6.65" height="23.73"/><rect class="cls-4" x="667.85" y="295.27" width="6.65" height="23.73"/><rect class="cls-4" x="642.01" y="295.27" width="6.65" height="23.73"/><rect class="cls-4" x="616.91" y="295.27" width="6.65" height="23.73"/><rect class="cls-4" x="592.07" y="295.27" width="6.65" height="23.73"/><rect class="cls-4" x="567.09" y="295.27" width="6.65" height="23.73"/><rect class="cls-4" x="542.23" y="295.27" width="6.65" height="23.73"/><rect class="cls-4" x="517.99" y="295.27" width="6.65" height="23.73"/><rect class="cls-4" x="496.92" y="295.27" width="6.65" height="23.73"/><rect class="cls-4" x="472.68" y="295.27" width="6.65" height="23.73"/><polygon class="cls-5" points="495.31 387.18 495.31 380.41 488.86 387.18 495.31 387.18"/><polygon class="cls-5" points="492.6 399.5 495.31 396.65 495.31 389.69 486.46 389.69 477.12 399.5 492.6 399.5"/><polygon class="cls-6" points="495.31 374.85 495.31 364.81 489.67 364.81 480.1 374.85 495.31 374.85"/><polygon class="cls-6" points="486.46 389.69 476.86 389.69 476.86 399.5 477.12 399.5 486.46 389.69"/><polygon class="cls-6" points="477.7 377.37 476.86 377.37 476.86 378.26 476.86 387.18 488.86 387.18 495.31 380.41 495.31 377.37 477.7 377.37"/><polygon class="cls-5" points="489.67 364.81 476.86 364.81 476.86 374.85 480.1 374.85 489.67 364.81"/><polygon class="cls-6" points="495.31 399.5 495.31 396.65 492.6 399.5 495.31 399.5"/><polygon class="cls-6" points="504.35 387.18 516.09 387.18 516.09 377.37 513.69 377.37 504.35 387.18"/><polygon class="cls-6" points="497.64 394.21 497.64 399.5 516.09 399.5 516.09 389.69 501.95 389.69 497.64 394.21"/><polygon class="cls-6" points="497.64 364.81 497.64 374.85 500.61 374.85 510.18 364.81 497.64 364.81"/><polygon class="cls-5" points="498.21 377.37 497.64 377.37 497.64 377.97 497.64 387.18 504.35 387.18 513.69 377.37 498.21 377.37"/><polygon class="cls-5" points="497.64 389.69 497.64 394.21 501.95 389.69 497.64 389.69"/><polygon class="cls-5" points="500.61 374.85 516.09 374.85 516.09 364.81 510.18 364.81 500.61 374.85"/><path class="cls-7" d="M496.53,417.6c11.81,0,12.81-10.59,12.81-10.59H483.72S484.71,417.6,496.53,417.6Z"/><rect class="cls-8" x="471.34" y="401.16" width="49.31" height="2.09" rx="0.43"/><rect class="cls-8" x="471.34" y="358.96" width="49.31" height="2.09" rx="0.43"/><path class="cls-9" d="M518.59,387.17V364.81h6.46V357.3H468v7.51h6.45V399.5H468V407h57V399.5h-6.46V387.17Zm-2.5,0H497.64v-9.8h18.45Zm0-12.32H497.64v-10h18.45Zm-44.32-13.79a.43.43,0,0,1-.43-.43v-1.24a.43.43,0,0,1,.43-.43h48.45a.43.43,0,0,1,.43.43v1.24a.43.43,0,0,1-.43.43Zm5.09,3.75h18.45v10H476.86Zm0,13.45v-.89h18.45v9.8H476.86Zm0,11.43h18.45v9.81H476.86Zm43.36,11.47a.43.43,0,0,1,.43.43v1.23a.43.43,0,0,1-.43.43H471.77a.43.43,0,0,1-.43-.43v-1.23a.43.43,0,0,1,.43-.43Zm-4.13-1.66H497.64v-9.81h18.45Z"/><polygon class="cls-5" points="577.25 387.18 577.25 380.41 570.8 387.18 577.25 387.18"/><polygon class="cls-5" points="574.54 399.5 577.25 396.65 577.25 389.69 568.41 389.69 559.06 399.5 574.54 399.5"/><polygon class="cls-6" points="577.25 374.85 577.25 364.81 571.62 364.81 562.04 374.85 577.25 374.85"/><polygon class="cls-6" points="568.41 389.69 558.8 389.69 558.8 399.5 559.06 399.5 568.41 389.69"/><polygon class="cls-6" points="559.65 377.37 558.8 377.37 558.8 378.26 558.8 387.18 570.8 387.18 577.25 380.41 577.25 377.37 559.65 377.37"/><polygon class="cls-5" points="571.62 364.81 558.8 364.81 558.8 374.85 562.04 374.85 571.62 364.81"/><polygon class="cls-6" points="577.25 399.5 577.25 396.65 574.54 399.5 577.25 399.5"/><polygon class="cls-6" points="586.29 387.18 598.03 387.18 598.03 377.37 595.63 377.37 586.29 387.18"/><polygon class="cls-6" points="579.58 394.21 579.58 399.5 598.03 399.5 598.03 389.69 583.89 389.69 579.58 394.21"/><polygon class="cls-6" points="579.58 364.81 579.58 374.85 582.55 374.85 592.12 364.81 579.58 364.81"/><polygon class="cls-5" points="580.15 377.37 579.58 377.37 579.58 377.97 579.58 387.18 586.29 387.18 595.63 377.37 580.15 377.37"/><polygon class="cls-5" points="579.58 389.69 579.58 394.21 583.89 389.69 579.58 389.69"/><polygon class="cls-5" points="582.55 374.85 598.03 374.85 598.03 364.81 592.12 364.81 582.55 374.85"/><path class="cls-7" d="M578.47,417.6c11.82,0,12.81-10.59,12.81-10.59H565.66S566.66,417.6,578.47,417.6Z"/><rect class="cls-8" x="553.28" y="401.16" width="49.31" height="2.09" rx="0.43"/><rect class="cls-8" x="553.28" y="358.96" width="49.31" height="2.09" rx="0.43"/><path class="cls-9" d="M600.54,387.17V364.81H607V357.3H550v7.51h6.45V399.5H550V407h57V399.5h-6.45V387.17Zm-2.51,0H579.58v-9.8H598Zm0-12.32H579.58v-10H598Zm-44.32-13.79a.43.43,0,0,1-.43-.43v-1.24a.43.43,0,0,1,.43-.43h48.45a.43.43,0,0,1,.43.43v1.24a.43.43,0,0,1-.43.43Zm5.09,3.75h18.45v10H558.8Zm0,13.45v-.89h18.45v9.8H558.8Zm0,11.43h18.45v9.81H558.8Zm43.36,11.47a.43.43,0,0,1,.43.43v1.23a.43.43,0,0,1-.43.43H553.71a.43.43,0,0,1-.43-.43v-1.23a.43.43,0,0,1,.43-.43ZM598,399.5H579.58v-9.81H598Z"/><polygon class="cls-5" points="659.98 387.18 659.98 380.41 653.53 387.18 659.98 387.18"/><polygon class="cls-5" points="657.27 399.5 659.98 396.65 659.98 389.69 651.13 389.69 641.79 399.5 657.27 399.5"/><polygon class="cls-6" points="659.98 374.85 659.98 364.81 654.34 364.81 644.77 374.85 659.98 374.85"/><polygon class="cls-6" points="651.13 389.69 641.53 389.69 641.53 399.5 641.79 399.5 651.13 389.69"/><polygon class="cls-6" points="642.37 377.37 641.53 377.37 641.53 378.26 641.53 387.18 653.53 387.18 659.98 380.41 659.98 377.37 642.37 377.37"/><polygon class="cls-5" points="654.34 364.81 641.53 364.81 641.53 374.85 644.77 374.85 654.34 364.81"/><polygon class="cls-6" points="659.98 399.5 659.98 396.65 657.27 399.5 659.98 399.5"/><polygon class="cls-6" points="669.02 387.18 680.76 387.18 680.76 377.37 678.36 377.37 669.02 387.18"/><polygon class="cls-6" points="662.31 394.21 662.31 399.5 680.76 399.5 680.76 389.69 666.62 389.69 662.31 394.21"/><polygon class="cls-6" points="662.31 364.81 662.31 374.85 665.28 374.85 674.85 364.81 662.31 364.81"/><polygon class="cls-5" points="662.88 377.37 662.31 377.37 662.31 377.97 662.31 387.18 669.02 387.18 678.36 377.37 662.88 377.37"/><polygon class="cls-5" points="662.31 389.69 662.31 394.21 666.62 389.69 662.31 389.69"/><polygon class="cls-5" points="665.28 374.85 680.76 374.85 680.76 364.81 674.85 364.81 665.28 374.85"/><path class="cls-7" d="M661.2,417.6C673,417.6,674,407,674,407H648.38S649.38,417.6,661.2,417.6Z"/><rect class="cls-8" x="636.01" y="401.16" width="49.31" height="2.09" rx="0.43"/><rect class="cls-8" x="636.01" y="358.96" width="49.31" height="2.09" rx="0.43"/><path class="cls-9" d="M683.26,387.17V364.81h6.46V357.3h-57v7.51h6.45V399.5h-6.45V407h57V399.5h-6.46V387.17Zm-2.5,0H662.31v-9.8h18.45Zm0-12.32H662.31v-10h18.45Zm-44.32-13.79a.43.43,0,0,1-.43-.43v-1.24a.43.43,0,0,1,.43-.43h48.45a.43.43,0,0,1,.43.43v1.24a.43.43,0,0,1-.43.43Zm5.09,3.75H660v10H641.53Zm0,13.45v-.89H660v9.8H641.53Zm0,11.43H660v9.81H641.53Zm43.36,11.47a.43.43,0,0,1,.43.43v1.23a.43.43,0,0,1-.43.43H636.44a.43.43,0,0,1-.43-.43v-1.23a.43.43,0,0,1,.43-.43Zm-4.13-1.66H662.31v-9.81h18.45Z"/><polygon class="cls-5" points="495.31 470.5 495.31 463.74 488.86 470.5 495.31 470.5"/><polygon class="cls-5" points="492.6 482.82 495.31 479.98 495.31 473.02 486.46 473.02 477.12 482.82 492.6 482.82"/><polygon class="cls-6" points="495.31 458.18 495.31 448.14 489.67 448.14 480.1 458.18 495.31 458.18"/><polygon class="cls-6" points="486.46 473.02 476.86 473.02 476.86 482.82 477.12 482.82 486.46 473.02"/><polygon class="cls-6" points="477.7 460.7 476.86 460.7 476.86 461.59 476.86 470.5 488.86 470.5 495.31 463.74 495.31 460.7 477.7 460.7"/><polygon class="cls-5" points="489.67 448.14 476.86 448.14 476.86 458.18 480.1 458.18 489.67 448.14"/><polygon class="cls-6" points="495.31 482.82 495.31 479.98 492.6 482.82 495.31 482.82"/><polygon class="cls-6" points="504.35 470.5 516.09 470.5 516.09 460.7 513.69 460.7 504.35 470.5"/><polygon class="cls-6" points="497.64 477.54 497.64 482.82 516.09 482.82 516.09 473.02 501.95 473.02 497.64 477.54"/><polygon class="cls-6" points="497.64 448.14 497.64 458.18 500.61 458.18 510.18 448.14 497.64 448.14"/><polygon class="cls-5" points="498.21 460.7 497.64 460.7 497.64 461.3 497.64 470.5 504.35 470.5 513.69 460.7 498.21 460.7"/><polygon class="cls-5" points="497.64 473.02 497.64 477.54 501.95 473.02 497.64 473.02"/><polygon class="cls-5" points="500.61 458.18 516.09 458.18 516.09 448.14 510.18 448.14 500.61 458.18"/><path class="cls-7" d="M496.53,500.93c11.81,0,12.81-10.59,12.81-10.59H483.72S484.71,500.93,496.53,500.93Z"/><rect class="cls-8" x="471.34" y="484.49" width="49.31" height="2.09" rx="0.43"/><rect class="cls-8" x="471.34" y="442.29" width="49.31" height="2.09" rx="0.43"/><path class="cls-9" d="M518.59,470.5V448.14h6.46v-7.51H468v7.51h6.45v34.68H468v7.52h57v-7.52h-6.46V470.5Zm-2.5,0H497.64v-9.8h18.45Zm0-12.32H497.64v-10h18.45Zm-44.32-13.8a.43.43,0,0,1-.43-.43v-1.23a.43.43,0,0,1,.43-.43h48.45a.43.43,0,0,1,.43.43V444a.43.43,0,0,1-.43.43Zm5.09,3.76h18.45v10H476.86Zm0,13.45v-.89h18.45v9.8H476.86Zm0,11.43h18.45v9.8H476.86Zm43.36,11.47a.43.43,0,0,1,.43.43v1.23a.43.43,0,0,1-.43.43H471.77a.43.43,0,0,1-.43-.43v-1.23a.43.43,0,0,1,.43-.43Zm-4.13-1.67H497.64V473h18.45Z"/><polygon class="cls-5" points="577.25 470.5 577.25 463.74 570.8 470.5 577.25 470.5"/><polygon class="cls-5" points="574.54 482.82 577.25 479.98 577.25 473.02 568.41 473.02 559.06 482.82 574.54 482.82"/><polygon class="cls-6" points="577.25 458.18 577.25 448.14 571.62 448.14 562.04 458.18 577.25 458.18"/><polygon class="cls-6" points="568.41 473.02 558.8 473.02 558.8 482.82 559.06 482.82 568.41 473.02"/><polygon class="cls-6" points="559.65 460.7 558.8 460.7 558.8 461.59 558.8 470.5 570.8 470.5 577.25 463.74 577.25 460.7 559.65 460.7"/><polygon class="cls-5" points="571.62 448.14 558.8 448.14 558.8 458.18 562.04 458.18 571.62 448.14"/><polygon class="cls-6" points="577.25 482.82 577.25 479.98 574.54 482.82 577.25 482.82"/><polygon class="cls-6" points="586.29 470.5 598.03 470.5 598.03 460.7 595.63 460.7 586.29 470.5"/><polygon class="cls-6" points="579.58 477.54 579.58 482.82 598.03 482.82 598.03 473.02 583.89 473.02 579.58 477.54"/><polygon class="cls-6" points="579.58 448.14 579.58 458.18 582.55 458.18 592.12 448.14 579.58 448.14"/><polygon class="cls-5" points="580.15 460.7 579.58 460.7 579.58 461.3 579.58 470.5 586.29 470.5 595.63 460.7 580.15 460.7"/><polygon class="cls-5" points="579.58 473.02 579.58 477.54 583.89 473.02 579.58 473.02"/><polygon class="cls-5" points="582.55 458.18 598.03 458.18 598.03 448.14 592.12 448.14 582.55 458.18"/><path class="cls-7" d="M578.47,500.93c11.82,0,12.81-10.59,12.81-10.59H565.66S566.66,500.93,578.47,500.93Z"/><rect class="cls-8" x="553.28" y="484.49" width="49.31" height="2.09" rx="0.43"/><rect class="cls-8" x="553.28" y="442.29" width="49.31" height="2.09" rx="0.43"/><path class="cls-9" d="M600.54,470.5V448.14H607v-7.51H550v7.51h6.45v34.68H550v7.52h57v-7.52h-6.45V470.5Zm-2.51,0H579.58v-9.8H598Zm0-12.32H579.58v-10H598Zm-44.32-13.8a.43.43,0,0,1-.43-.43v-1.23a.43.43,0,0,1,.43-.43h48.45a.43.43,0,0,1,.43.43V444a.43.43,0,0,1-.43.43Zm5.09,3.76h18.45v10H558.8Zm0,13.45v-.89h18.45v9.8H558.8Zm0,11.43h18.45v9.8H558.8Zm43.36,11.47a.43.43,0,0,1,.43.43v1.23a.43.43,0,0,1-.43.43H553.71a.43.43,0,0,1-.43-.43v-1.23a.43.43,0,0,1,.43-.43ZM598,482.82H579.58V473H598Z"/><polygon class="cls-5" points="659.98 470.5 659.98 463.74 653.53 470.5 659.98 470.5"/><polygon class="cls-5" points="657.27 482.82 659.98 479.98 659.98 473.02 651.13 473.02 641.79 482.82 657.27 482.82"/><polygon class="cls-6" points="659.98 458.18 659.98 448.14 654.34 448.14 644.77 458.18 659.98 458.18"/><polygon class="cls-6" points="651.13 473.02 641.53 473.02 641.53 482.82 641.79 482.82 651.13 473.02"/><polygon class="cls-6" points="642.37 460.7 641.53 460.7 641.53 461.59 641.53 470.5 653.53 470.5 659.98 463.74 659.98 460.7 642.37 460.7"/><polygon class="cls-5" points="654.34 448.14 641.53 448.14 641.53 458.18 644.77 458.18 654.34 448.14"/><polygon class="cls-6" points="659.98 482.82 659.98 479.98 657.27 482.82 659.98 482.82"/><polygon class="cls-6" points="669.02 470.5 680.76 470.5 680.76 460.7 678.36 460.7 669.02 470.5"/><polygon class="cls-6" points="662.31 477.54 662.31 482.82 680.76 482.82 680.76 473.02 666.62 473.02 662.31 477.54"/><polygon class="cls-6" points="662.31 448.14 662.31 458.18 665.28 458.18 674.85 448.14 662.31 448.14"/><polygon class="cls-5" points="662.88 460.7 662.31 460.7 662.31 461.3 662.31 470.5 669.02 470.5 678.36 460.7 662.88 460.7"/><polygon class="cls-5" points="662.31 473.02 662.31 477.54 666.62 473.02 662.31 473.02"/><polygon class="cls-5" points="665.28 458.18 680.76 458.18 680.76 448.14 674.85 448.14 665.28 458.18"/><path class="cls-7" d="M661.2,500.93c11.81,0,12.81-10.59,12.81-10.59H648.38S649.38,500.93,661.2,500.93Z"/><rect class="cls-8" x="636.01" y="484.49" width="49.31" height="2.09" rx="0.43"/><rect class="cls-8" x="636.01" y="442.29" width="49.31" height="2.09" rx="0.43"/><path class="cls-9" d="M683.26,470.5V448.14h6.46v-7.51h-57v7.51h6.45v34.68h-6.45v7.52h57v-7.52h-6.46V470.5Zm-2.5,0H662.31v-9.8h18.45Zm0-12.32H662.31v-10h18.45Zm-44.32-13.8A.43.43,0,0,1,636,444v-1.23a.43.43,0,0,1,.43-.43h48.45a.43.43,0,0,1,.43.43V444a.43.43,0,0,1-.43.43Zm5.09,3.76H660v10H641.53Zm0,13.45v-.89H660v9.8H641.53Zm0,11.43H660v9.8H641.53Zm43.36,11.47a.43.43,0,0,1,.43.43v1.23a.43.43,0,0,1-.43.43H636.44a.43.43,0,0,1-.43-.43v-1.23a.43.43,0,0,1,.43-.43Zm-4.13-1.67H662.31V473h18.45Z"/><polygon class="cls-5" points="495.31 551.22 495.31 544.46 488.86 551.22 495.31 551.22"/><polygon class="cls-5" points="492.6 563.54 495.31 560.7 495.31 553.74 486.46 553.74 477.12 563.54 492.6 563.54"/><polygon class="cls-6" points="495.31 538.9 495.31 528.86 489.67 528.86 480.1 538.9 495.31 538.9"/><polygon class="cls-6" points="486.46 553.74 476.86 553.74 476.86 563.54 477.12 563.54 486.46 553.74"/><polygon class="cls-6" points="477.7 541.42 476.86 541.42 476.86 542.31 476.86 551.22 488.86 551.22 495.31 544.46 495.31 541.42 477.7 541.42"/><polygon class="cls-5" points="489.67 528.86 476.86 528.86 476.86 538.9 480.1 538.9 489.67 528.86"/><polygon class="cls-6" points="495.31 563.54 495.31 560.7 492.6 563.54 495.31 563.54"/><polygon class="cls-6" points="504.35 551.22 516.09 551.22 516.09 541.42 513.69 541.42 504.35 551.22"/><polygon class="cls-6" points="497.64 558.26 497.64 563.54 516.09 563.54 516.09 553.74 501.95 553.74 497.64 558.26"/><polygon class="cls-6" points="497.64 528.86 497.64 538.9 500.61 538.9 510.18 528.86 497.64 528.86"/><polygon class="cls-5" points="498.21 541.42 497.64 541.42 497.64 542.02 497.64 551.22 504.35 551.22 513.69 541.42 498.21 541.42"/><polygon class="cls-5" points="497.64 553.74 497.64 558.26 501.95 553.74 497.64 553.74"/><polygon class="cls-5" points="500.61 538.9 516.09 538.9 516.09 528.86 510.18 528.86 500.61 538.9"/><path class="cls-7" d="M496.53,581.65c11.81,0,12.81-10.59,12.81-10.59H483.72S484.71,581.65,496.53,581.65Z"/><rect class="cls-8" x="471.34" y="565.21" width="49.31" height="2.09" rx="0.43"/><rect class="cls-8" x="471.34" y="523.01" width="49.31" height="2.09" rx="0.43"/><path class="cls-9" d="M518.59,551.22V528.86h6.46v-7.51H468v7.51h6.45v34.68H468v7.52h57v-7.52h-6.46V551.22Zm-2.5,0H497.64v-9.8h18.45Zm0-12.32H497.64v-10h18.45Zm-44.32-13.8a.43.43,0,0,1-.43-.43v-1.23a.43.43,0,0,1,.43-.43h48.45a.43.43,0,0,1,.43.43v1.23a.43.43,0,0,1-.43.43Zm5.09,3.76h18.45v10H476.86Zm0,13.45v-.89h18.45v9.8H476.86Zm0,11.43h18.45v9.8H476.86Zm43.36,11.47a.43.43,0,0,1,.43.43v1.23a.43.43,0,0,1-.43.43H471.77a.43.43,0,0,1-.43-.43v-1.23a.43.43,0,0,1,.43-.43Zm-4.13-1.67H497.64v-9.8h18.45Z"/><polygon class="cls-5" points="577.25 551.22 577.25 544.46 570.8 551.22 577.25 551.22"/><polygon class="cls-5" points="574.54 563.54 577.25 560.7 577.25 553.74 568.41 553.74 559.06 563.54 574.54 563.54"/><polygon class="cls-6" points="577.25 538.9 577.25 528.86 571.62 528.86 562.04 538.9 577.25 538.9"/><polygon class="cls-6" points="568.41 553.74 558.8 553.74 558.8 563.54 559.06 563.54 568.41 553.74"/><polygon class="cls-6" points="559.65 541.42 558.8 541.42 558.8 542.31 558.8 551.22 570.8 551.22 577.25 544.46 577.25 541.42 559.65 541.42"/><polygon class="cls-5" points="571.62 528.86 558.8 528.86 558.8 538.9 562.04 538.9 571.62 528.86"/><polygon class="cls-6" points="577.25 563.54 577.25 560.7 574.54 563.54 577.25 563.54"/><polygon class="cls-6" points="586.29 551.22 598.03 551.22 598.03 541.42 595.63 541.42 586.29 551.22"/><polygon class="cls-6" points="579.58 558.26 579.58 563.54 598.03 563.54 598.03 553.74 583.89 553.74 579.58 558.26"/><polygon class="cls-6" points="579.58 528.86 579.58 538.9 582.55 538.9 592.12 528.86 579.58 528.86"/><polygon class="cls-5" points="580.15 541.42 579.58 541.42 579.58 542.02 579.58 551.22 586.29 551.22 595.63 541.42 580.15 541.42"/><polygon class="cls-5" points="579.58 553.74 579.58 558.26 583.89 553.74 579.58 553.74"/><polygon class="cls-5" points="582.55 538.9 598.03 538.9 598.03 528.86 592.12 528.86 582.55 538.9"/><path class="cls-7" d="M578.47,581.65c11.82,0,12.81-10.59,12.81-10.59H565.66S566.66,581.65,578.47,581.65Z"/><rect class="cls-8" x="553.28" y="565.21" width="49.31" height="2.09" rx="0.43"/><rect class="cls-8" x="553.28" y="523.01" width="49.31" height="2.09" rx="0.43"/><path class="cls-9" d="M600.54,551.22V528.86H607v-7.51H550v7.51h6.45v34.68H550v7.52h57v-7.52h-6.45V551.22Zm-2.51,0H579.58v-9.8H598Zm0-12.32H579.58v-10H598Zm-44.32-13.8a.43.43,0,0,1-.43-.43v-1.23a.43.43,0,0,1,.43-.43h48.45a.43.43,0,0,1,.43.43v1.23a.43.43,0,0,1-.43.43Zm5.09,3.76h18.45v10H558.8Zm0,13.45v-.89h18.45v9.8H558.8Zm0,11.43h18.45v9.8H558.8Zm43.36,11.47a.43.43,0,0,1,.43.43v1.23a.43.43,0,0,1-.43.43H553.71a.43.43,0,0,1-.43-.43v-1.23a.43.43,0,0,1,.43-.43ZM598,563.54H579.58v-9.8H598Z"/><polygon class="cls-5" points="659.98 551.22 659.98 544.46 653.53 551.22 659.98 551.22"/><polygon class="cls-5" points="657.27 563.54 659.98 560.7 659.98 553.74 651.13 553.74 641.79 563.54 657.27 563.54"/><polygon class="cls-6" points="659.98 538.9 659.98 528.86 654.34 528.86 644.77 538.9 659.98 538.9"/><polygon class="cls-6" points="651.13 553.74 641.53 553.74 641.53 563.54 641.79 563.54 651.13 553.74"/><polygon class="cls-6" points="642.37 541.42 641.53 541.42 641.53 542.31 641.53 551.22 653.53 551.22 659.98 544.46 659.98 541.42 642.37 541.42"/><polygon class="cls-5" points="654.34 528.86 641.53 528.86 641.53 538.9 644.77 538.9 654.34 528.86"/><polygon class="cls-6" points="659.98 563.54 659.98 560.7 657.27 563.54 659.98 563.54"/><polygon class="cls-6" points="669.02 551.22 680.76 551.22 680.76 541.42 678.36 541.42 669.02 551.22"/><polygon class="cls-6" points="662.31 558.26 662.31 563.54 680.76 563.54 680.76 553.74 666.62 553.74 662.31 558.26"/><polygon class="cls-6" points="662.31 528.86 662.31 538.9 665.28 538.9 674.85 528.86 662.31 528.86"/><polygon class="cls-5" points="662.88 541.42 662.31 541.42 662.31 542.02 662.31 551.22 669.02 551.22 678.36 541.42 662.88 541.42"/><polygon class="cls-5" points="662.31 553.74 662.31 558.26 666.62 553.74 662.31 553.74"/><polygon class="cls-5" points="665.28 538.9 680.76 538.9 680.76 528.86 674.85 528.86 665.28 538.9"/><path class="cls-7" d="M661.2,581.65c11.81,0,12.81-10.59,12.81-10.59H648.38S649.38,581.65,661.2,581.65Z"/><rect class="cls-8" x="636.01" y="565.21" width="49.31" height="2.09" rx="0.43"/><rect class="cls-8" x="636.01" y="523.01" width="49.31" height="2.09" rx="0.43"/><path class="cls-9" d="M683.26,551.22V528.86h6.46v-7.51h-57v7.51h6.45v34.68h-6.45v7.52h57v-7.52h-6.46V551.22Zm-2.5,0H662.31v-9.8h18.45Zm0-12.32H662.31v-10h18.45Zm-44.32-13.8a.43.43,0,0,1-.43-.43v-1.23a.43.43,0,0,1,.43-.43h48.45a.43.43,0,0,1,.43.43v1.23a.43.43,0,0,1-.43.43Zm5.09,3.76H660v10H641.53Zm0,13.45v-.89H660v9.8H641.53Zm0,11.43H660v9.8H641.53Zm43.36,11.47a.43.43,0,0,1,.43.43v1.23a.43.43,0,0,1-.43.43H636.44a.43.43,0,0,1-.43-.43v-1.23a.43.43,0,0,1,.43-.43Zm-4.13-1.67H662.31v-9.8h18.45Z"/><rect class="cls-8" x="452.83" y="319" width="251.76" height="14.81"/><rect class="cls-3" x="452.83" y="333.81" width="248.32" height="7.91"/><rect class="cls-3" x="519.48" y="496.14" width="19.77" height="10.23" rx="1.44"/><rect class="cls-3" x="528.48" y="508.2" width="19.77" height="10.23" rx="1.44"/><rect class="cls-3" x="606.93" y="586.82" width="19.77" height="10.23" rx="1.44"/><rect class="cls-3" x="615.93" y="598.89" width="19.77" height="10.23" rx="1.44"/><rect class="cls-3" x="592.12" y="598.89" width="19.77" height="10.23" rx="1.44"/><rect class="cls-3" x="528.5" y="411.54" width="19.77" height="10.23" rx="1.44"/><rect class="cls-3" x="537.5" y="423.6" width="19.77" height="10.23" rx="1.44"/><rect class="cls-3" x="513.69" y="423.6" width="19.77" height="10.23" rx="1.44"/><path class="cls-10" d="M698.12,319V295.27H452.83v46.45H451v320.5H701.15V333.81h3.44V319Zm-6.64-17.35V319h-17V301.65Zm-23.63,0V319h-19.2V301.65Zm-25.84,0V319H623.55V301.65Zm-25.1,0V319h-18.2V301.65Zm-24.84,0V319H573.74V301.65Zm-25,0V319H548.87V301.65Zm-24.86,0V319H524.64V301.65Zm-24.24,0V319H503.56V301.65Zm-21.07,0V319H479.33V301.65Zm-37.44,0h13.2V319h-13.2Z"/><rect class="cls-2" x="3.44" y="341.72" width="250.16" height="273.84" transform="translate(257.05 957.28) rotate(-180)"/><rect class="cls-3" x="3.44" y="615.56" width="250.16" height="46.65" transform="translate(257.05 1277.78) rotate(-180)"/><rect class="cls-4" x="6.47" y="295.27" width="245.29" height="6.37" transform="translate(258.23 596.92) rotate(-180)"/><rect class="cls-4" x="245.12" y="295.27" width="6.65" height="23.73" transform="translate(496.88 614.27) rotate(-180)"/><rect class="cls-4" x="6.47" y="295.27" width="6.65" height="23.73" transform="translate(19.58 614.27) rotate(-180)"/><rect class="cls-4" x="30.1" y="295.27" width="6.65" height="23.73" transform="translate(66.84 614.27) rotate(-180)"/><rect class="cls-4" x="55.94" y="295.27" width="6.65" height="23.73" transform="translate(118.53 614.27) rotate(-180)"/><rect class="cls-4" x="81.04" y="295.27" width="6.65" height="23.73" transform="translate(168.73 614.27) rotate(-180)"/><rect class="cls-4" x="105.88" y="295.27" width="6.65" height="23.73" transform="translate(218.4 614.27) rotate(-180)"/><rect class="cls-4" x="130.86" y="295.27" width="6.65" height="23.73" transform="translate(268.36 614.27) rotate(-180)"/><rect class="cls-4" x="155.72" y="295.27" width="6.65" height="23.73" transform="translate(318.09 614.27) rotate(-180)"/><rect class="cls-4" x="179.95" y="295.27" width="6.65" height="23.73" transform="translate(366.55 614.27) rotate(-180)"/><rect class="cls-4" x="201.03" y="295.27" width="6.65" height="23.73" transform="translate(408.71 614.27) rotate(-180)"/><rect class="cls-4" x="225.26" y="295.27" width="6.65" height="23.73" transform="translate(457.17 614.27) rotate(-180)"/><polygon class="cls-5" points="209.28 387.18 209.28 380.41 215.73 387.18 209.28 387.18"/><polygon class="cls-5" points="211.99 399.5 209.28 396.65 209.28 389.69 218.13 389.69 227.47 399.5 211.99 399.5"/><polygon class="cls-6" points="209.28 374.85 209.28 364.81 214.92 364.81 224.49 374.85 209.28 374.85"/><polygon class="cls-6" points="218.13 389.69 227.74 389.69 227.74 399.5 227.47 399.5 218.13 389.69"/><polygon class="cls-6" points="226.89 377.37 227.74 377.37 227.74 378.26 227.74 387.18 215.73 387.18 209.28 380.41 209.28 377.37 226.89 377.37"/><polygon class="cls-5" points="214.92 364.81 227.74 364.81 227.74 374.85 224.49 374.85 214.92 364.81"/><polygon class="cls-6" points="209.28 399.5 209.28 396.65 211.99 399.5 209.28 399.5"/><polygon class="cls-6" points="200.25 387.18 188.5 387.18 188.5 377.37 190.9 377.37 200.25 387.18"/><polygon class="cls-6" points="206.96 394.21 206.96 399.5 188.5 399.5 188.5 389.69 202.64 389.69 206.96 394.21"/><polygon class="cls-6" points="206.96 364.81 206.96 374.85 203.98 374.85 194.41 364.81 206.96 364.81"/><polygon class="cls-5" points="206.38 377.37 206.96 377.37 206.96 377.97 206.96 387.18 200.25 387.18 190.9 377.37 206.38 377.37"/><polygon class="cls-5" points="206.96 389.69 206.96 394.21 202.64 389.69 206.96 389.69"/><polygon class="cls-5" points="203.98 374.85 188.5 374.85 188.5 364.81 194.41 364.81 203.98 374.85"/><path class="cls-7" d="M208.06,417.6c-11.81,0-12.81-10.59-12.81-10.59h25.63S219.88,417.6,208.06,417.6Z"/><rect class="cls-8" x="183.94" y="401.16" width="49.31" height="2.09" rx="0.43"/><rect class="cls-8" x="183.94" y="358.96" width="49.31" height="2.09" rx="0.43"/><path class="cls-9" d="M186,389.69v9.81h-6.45V407h57V399.5h-6.45V364.81h6.45V357.3h-57v7.51H186v24.88Zm2.5-12.32H207v9.8H188.5Zm0-12.56H207v10H188.5Zm-4.13-3.75a.44.44,0,0,1-.43-.43v-1.24a.44.44,0,0,1,.43-.43h48.45a.43.43,0,0,1,.43.43v1.24a.43.43,0,0,1-.43.43Zm43.37,13.79H209.28v-10h18.46Zm0,12.32H209.28v-9.8h18.46v9.8Zm0,12.33H209.28v-9.81h18.46Zm5.08,1.66a.43.43,0,0,1,.43.43v1.23a.43.43,0,0,1-.43.43H184.37a.43.43,0,0,1-.43-.43v-1.23a.43.43,0,0,1,.43-.43ZM188.5,389.69H207v9.81H188.5Z"/><polygon class="cls-5" points="127.34 387.18 127.34 380.41 133.79 387.18 127.34 387.18"/><polygon class="cls-5" points="130.05 399.5 127.34 396.65 127.34 389.69 136.19 389.69 145.53 399.5 130.05 399.5"/><polygon class="cls-6" points="127.34 374.85 127.34 364.81 132.98 364.81 142.55 374.85 127.34 374.85"/><polygon class="cls-6" points="136.19 389.69 145.79 389.69 145.79 399.5 145.53 399.5 136.19 389.69"/><polygon class="cls-6" points="144.95 377.37 145.79 377.37 145.79 378.26 145.79 387.18 133.79 387.18 127.34 380.41 127.34 377.37 144.95 377.37"/><polygon class="cls-5" points="132.98 364.81 145.79 364.81 145.79 374.85 142.55 374.85 132.98 364.81"/><polygon class="cls-6" points="127.34 399.5 127.34 396.65 130.05 399.5 127.34 399.5"/><polygon class="cls-6" points="118.3 387.18 106.56 387.18 106.56 377.37 108.96 377.37 118.3 387.18"/><polygon class="cls-6" points="125.01 394.21 125.01 399.5 106.56 399.5 106.56 389.69 120.7 389.69 125.01 394.21"/><polygon class="cls-6" points="125.01 364.81 125.01 374.85 122.04 374.85 112.47 364.81 125.01 364.81"/><polygon class="cls-5" points="124.44 377.37 125.01 377.37 125.01 377.97 125.01 387.18 118.3 387.18 108.96 377.37 124.44 377.37"/><polygon class="cls-5" points="125.01 389.69 125.01 394.21 120.7 389.69 125.01 389.69"/><polygon class="cls-5" points="122.04 374.85 106.56 374.85 106.56 364.81 112.47 364.81 122.04 374.85"/><path class="cls-7" d="M126.12,417.6c-11.81,0-12.81-10.59-12.81-10.59h25.62S137.94,417.6,126.12,417.6Z"/><rect class="cls-8" x="102" y="401.16" width="49.31" height="2.09" rx="0.43"/><rect class="cls-8" x="102" y="358.96" width="49.31" height="2.09" rx="0.43"/><path class="cls-9" d="M104.06,389.69v9.81H97.6V407h57V399.5h-6.45V364.81h6.45V357.3h-57v7.51h6.46v24.88Zm2.5-12.32H125v9.8H106.56Zm0-12.56H125v10H106.56Zm-4.13-3.75a.43.43,0,0,1-.43-.43v-1.24a.43.43,0,0,1,.43-.43h48.45a.43.43,0,0,1,.43.43v1.24a.43.43,0,0,1-.43.43Zm43.36,13.79H127.34v-10h18.45Zm0,12.32H127.34v-9.8h18.45v9.8Zm0,12.33H127.34v-9.81h18.45Zm5.09,1.66a.43.43,0,0,1,.43.43v1.23a.43.43,0,0,1-.43.43H102.43a.43.43,0,0,1-.43-.43v-1.23a.43.43,0,0,1,.43-.43Zm-44.32-11.47H125v9.81H106.56Z"/><polygon class="cls-5" points="44.61 387.18 44.61 380.41 51.06 387.18 44.61 387.18"/><polygon class="cls-5" points="47.32 399.5 44.61 396.65 44.61 389.69 53.46 389.69 62.8 399.5 47.32 399.5"/><polygon class="cls-6" points="44.61 374.85 44.61 364.81 50.25 364.81 59.82 374.85 44.61 374.85"/><polygon class="cls-6" points="53.46 389.69 63.07 389.69 63.07 399.5 62.8 399.5 53.46 389.69"/><polygon class="cls-6" points="62.22 377.37 63.07 377.37 63.07 378.26 63.07 387.18 51.06 387.18 44.61 380.41 44.61 377.37 62.22 377.37"/><polygon class="cls-5" points="50.25 364.81 63.07 364.81 63.07 374.85 59.82 374.85 50.25 364.81"/><polygon class="cls-6" points="44.61 399.5 44.61 396.65 47.32 399.5 44.61 399.5"/><polygon class="cls-6" points="35.58 387.18 23.83 387.18 23.83 377.37 26.23 377.37 35.58 387.18"/><polygon class="cls-6" points="42.29 394.21 42.29 399.5 23.83 399.5 23.83 389.69 37.98 389.69 42.29 394.21"/><polygon class="cls-6" points="42.29 364.81 42.29 374.85 39.31 374.85 29.74 364.81 42.29 364.81"/><polygon class="cls-5" points="41.71 377.37 42.29 377.37 42.29 377.97 42.29 387.18 35.58 387.18 26.23 377.37 41.71 377.37"/><polygon class="cls-5" points="42.29 389.69 42.29 394.21 37.98 389.69 42.29 389.69"/><polygon class="cls-5" points="39.31 374.85 23.83 374.85 23.83 364.81 29.74 364.81 39.31 374.85"/><path class="cls-7" d="M43.39,417.6C31.58,417.6,30.58,407,30.58,407H56.21S55.21,417.6,43.39,417.6Z"/><rect class="cls-8" x="19.27" y="401.16" width="49.31" height="2.09" rx="0.43"/><rect class="cls-8" x="19.27" y="358.96" width="49.31" height="2.09" rx="0.43"/><path class="cls-9" d="M21.33,389.69v9.81H14.88V407h57V399.5H65.46V364.81h6.45V357.3h-57v7.51h6.45v24.88Zm2.5-12.32H42.29v9.8H23.83Zm0-12.56H42.29v10H23.83Zm-4.13-3.75a.44.44,0,0,1-.43-.43v-1.24a.44.44,0,0,1,.43-.43H68.16a.43.43,0,0,1,.42.43v1.24a.43.43,0,0,1-.42.43Zm43.37,13.79H44.61v-10H63.07Zm0,12.32H44.61v-9.8H63.07v9.8Zm0,12.33H44.61v-9.81H63.07Zm5.09,1.66a.42.42,0,0,1,.42.43v1.23a.42.42,0,0,1-.42.43H19.7a.43.43,0,0,1-.43-.43v-1.23a.43.43,0,0,1,.43-.43ZM23.83,389.69H42.29v9.81H23.83Z"/><polygon class="cls-5" points="209.28 470.5 209.28 463.74 215.73 470.5 209.28 470.5"/><polygon class="cls-5" points="211.99 482.82 209.28 479.98 209.28 473.02 218.13 473.02 227.47 482.82 211.99 482.82"/><polygon class="cls-6" points="209.28 458.18 209.28 448.14 214.92 448.14 224.49 458.18 209.28 458.18"/><polygon class="cls-6" points="218.13 473.02 227.74 473.02 227.74 482.82 227.47 482.82 218.13 473.02"/><polygon class="cls-6" points="226.89 460.7 227.74 460.7 227.74 461.59 227.74 470.5 215.73 470.5 209.28 463.74 209.28 460.7 226.89 460.7"/><polygon class="cls-5" points="214.92 448.14 227.74 448.14 227.74 458.18 224.49 458.18 214.92 448.14"/><polygon class="cls-6" points="209.28 482.82 209.28 479.98 211.99 482.82 209.28 482.82"/><polygon class="cls-6" points="200.25 470.5 188.5 470.5 188.5 460.7 190.9 460.7 200.25 470.5"/><polygon class="cls-6" points="206.96 477.54 206.96 482.82 188.5 482.82 188.5 473.02 202.64 473.02 206.96 477.54"/><polygon class="cls-6" points="206.96 448.14 206.96 458.18 203.98 458.18 194.41 448.14 206.96 448.14"/><polygon class="cls-5" points="206.38 460.7 206.96 460.7 206.96 461.3 206.96 470.5 200.25 470.5 190.9 460.7 206.38 460.7"/><polygon class="cls-5" points="206.96 473.02 206.96 477.54 202.64 473.02 206.96 473.02"/><polygon class="cls-5" points="203.98 458.18 188.5 458.18 188.5 448.14 194.41 448.14 203.98 458.18"/><path class="cls-7" d="M208.06,500.93c-11.81,0-12.81-10.59-12.81-10.59h25.63S219.88,500.93,208.06,500.93Z"/><rect class="cls-8" x="183.94" y="484.49" width="49.31" height="2.09" rx="0.43"/><rect class="cls-8" x="183.94" y="442.29" width="49.31" height="2.09" rx="0.43"/><path class="cls-9" d="M186,473v9.8h-6.45v7.52h57v-7.52h-6.45V448.14h6.45v-7.51h-57v7.51H186V473Zm2.5-12.32H207v9.8H188.5Zm0-12.56H207v10H188.5Zm-4.13-3.76a.43.43,0,0,1-.43-.43v-1.23a.43.43,0,0,1,.43-.43h48.45a.43.43,0,0,1,.43.43V444a.43.43,0,0,1-.43.43Zm43.37,13.8H209.28v-10h18.46Zm0,12.32H209.28v-9.8h18.46v9.8Zm0,12.32H209.28V473h18.46Zm5.08,1.67a.43.43,0,0,1,.43.43v1.23a.43.43,0,0,1-.43.43H184.37a.43.43,0,0,1-.43-.43v-1.23a.43.43,0,0,1,.43-.43ZM188.5,473H207v9.8H188.5Z"/><polygon class="cls-5" points="127.34 470.5 127.34 463.74 133.79 470.5 127.34 470.5"/><polygon class="cls-5" points="130.05 482.82 127.34 479.98 127.34 473.02 136.19 473.02 145.53 482.82 130.05 482.82"/><polygon class="cls-6" points="127.34 458.18 127.34 448.14 132.98 448.14 142.55 458.18 127.34 458.18"/><polygon class="cls-6" points="136.19 473.02 145.79 473.02 145.79 482.82 145.53 482.82 136.19 473.02"/><polygon class="cls-6" points="144.95 460.7 145.79 460.7 145.79 461.59 145.79 470.5 133.79 470.5 127.34 463.74 127.34 460.7 144.95 460.7"/><polygon class="cls-5" points="132.98 448.14 145.79 448.14 145.79 458.18 142.55 458.18 132.98 448.14"/><polygon class="cls-6" points="127.34 482.82 127.34 479.98 130.05 482.82 127.34 482.82"/><polygon class="cls-6" points="118.3 470.5 106.56 470.5 106.56 460.7 108.96 460.7 118.3 470.5"/><polygon class="cls-6" points="125.01 477.54 125.01 482.82 106.56 482.82 106.56 473.02 120.7 473.02 125.01 477.54"/><polygon class="cls-6" points="125.01 448.14 125.01 458.18 122.04 458.18 112.47 448.14 125.01 448.14"/><polygon class="cls-5" points="124.44 460.7 125.01 460.7 125.01 461.3 125.01 470.5 118.3 470.5 108.96 460.7 124.44 460.7"/><polygon class="cls-5" points="125.01 473.02 125.01 477.54 120.7 473.02 125.01 473.02"/><polygon class="cls-5" points="122.04 458.18 106.56 458.18 106.56 448.14 112.47 448.14 122.04 458.18"/><path class="cls-7" d="M126.12,500.93c-11.81,0-12.81-10.59-12.81-10.59h25.62S137.94,500.93,126.12,500.93Z"/><rect class="cls-8" x="102" y="484.49" width="49.31" height="2.09" rx="0.43"/><rect class="cls-8" x="102" y="442.29" width="49.31" height="2.09" rx="0.43"/><path class="cls-9" d="M104.06,473v9.8H97.6v7.52h57v-7.52h-6.45V448.14h6.45v-7.51h-57v7.51h6.46V473Zm2.5-12.32H125v9.8H106.56Zm0-12.56H125v10H106.56Zm-4.13-3.76A.43.43,0,0,1,102,444v-1.23a.43.43,0,0,1,.43-.43h48.45a.43.43,0,0,1,.43.43V444a.43.43,0,0,1-.43.43Zm43.36,13.8H127.34v-10h18.45Zm0,12.32H127.34v-9.8h18.45v9.8Zm0,12.32H127.34V473h18.45Zm5.09,1.67a.43.43,0,0,1,.43.43v1.23a.43.43,0,0,1-.43.43H102.43a.43.43,0,0,1-.43-.43v-1.23a.43.43,0,0,1,.43-.43ZM106.56,473H125v9.8H106.56Z"/><polygon class="cls-5" points="44.61 470.5 44.61 463.74 51.06 470.5 44.61 470.5"/><polygon class="cls-5" points="47.32 482.82 44.61 479.98 44.61 473.02 53.46 473.02 62.8 482.82 47.32 482.82"/><polygon class="cls-6" points="44.61 458.18 44.61 448.14 50.25 448.14 59.82 458.18 44.61 458.18"/><polygon class="cls-6" points="53.46 473.02 63.07 473.02 63.07 482.82 62.8 482.82 53.46 473.02"/><polygon class="cls-6" points="62.22 460.7 63.07 460.7 63.07 461.59 63.07 470.5 51.06 470.5 44.61 463.74 44.61 460.7 62.22 460.7"/><polygon class="cls-5" points="50.25 448.14 63.07 448.14 63.07 458.18 59.82 458.18 50.25 448.14"/><polygon class="cls-6" points="44.61 482.82 44.61 479.98 47.32 482.82 44.61 482.82"/><polygon class="cls-6" points="35.58 470.5 23.83 470.5 23.83 460.7 26.23 460.7 35.58 470.5"/><polygon class="cls-6" points="42.29 477.54 42.29 482.82 23.83 482.82 23.83 473.02 37.98 473.02 42.29 477.54"/><polygon class="cls-6" points="42.29 448.14 42.29 458.18 39.31 458.18 29.74 448.14 42.29 448.14"/><polygon class="cls-5" points="41.71 460.7 42.29 460.7 42.29 461.3 42.29 470.5 35.58 470.5 26.23 460.7 41.71 460.7"/><polygon class="cls-5" points="42.29 473.02 42.29 477.54 37.98 473.02 42.29 473.02"/><polygon class="cls-5" points="39.31 458.18 23.83 458.18 23.83 448.14 29.74 448.14 39.31 458.18"/><path class="cls-7" d="M43.39,500.93c-11.81,0-12.81-10.59-12.81-10.59H56.21S55.21,500.93,43.39,500.93Z"/><rect class="cls-8" x="19.27" y="484.49" width="49.31" height="2.09" rx="0.43"/><rect class="cls-8" x="19.27" y="442.29" width="49.31" height="2.09" rx="0.43"/><path class="cls-9" d="M21.33,473v9.8H14.88v7.52h57v-7.52H65.46V448.14h6.45v-7.51h-57v7.51h6.45V473Zm2.5-12.32H42.29v9.8H23.83Zm0-12.56H42.29v10H23.83Zm-4.13-3.76a.43.43,0,0,1-.43-.43v-1.23a.43.43,0,0,1,.43-.43H68.16a.42.42,0,0,1,.42.43V444a.42.42,0,0,1-.42.43Zm43.37,13.8H44.61v-10H63.07Zm0,12.32H44.61v-9.8H63.07v9.8Zm0,12.32H44.61V473H63.07Zm5.09,1.67a.42.42,0,0,1,.42.43v1.23a.42.42,0,0,1-.42.43H19.7a.43.43,0,0,1-.43-.43v-1.23a.43.43,0,0,1,.43-.43ZM23.83,473H42.29v9.8H23.83Z"/><polygon class="cls-5" points="209.28 551.22 209.28 544.46 215.73 551.22 209.28 551.22"/><polygon class="cls-5" points="211.99 563.54 209.28 560.7 209.28 553.74 218.13 553.74 227.47 563.54 211.99 563.54"/><polygon class="cls-6" points="209.28 538.9 209.28 528.86 214.92 528.86 224.49 538.9 209.28 538.9"/><polygon class="cls-6" points="218.13 553.74 227.74 553.74 227.74 563.54 227.47 563.54 218.13 553.74"/><polygon class="cls-6" points="226.89 541.42 227.74 541.42 227.74 542.31 227.74 551.22 215.73 551.22 209.28 544.46 209.28 541.42 226.89 541.42"/><polygon class="cls-5" points="214.92 528.86 227.74 528.86 227.74 538.9 224.49 538.9 214.92 528.86"/><polygon class="cls-6" points="209.28 563.54 209.28 560.7 211.99 563.54 209.28 563.54"/><polygon class="cls-6" points="200.25 551.22 188.5 551.22 188.5 541.42 190.9 541.42 200.25 551.22"/><polygon class="cls-6" points="206.96 558.26 206.96 563.54 188.5 563.54 188.5 553.74 202.64 553.74 206.96 558.26"/><polygon class="cls-6" points="206.96 528.86 206.96 538.9 203.98 538.9 194.41 528.86 206.96 528.86"/><polygon class="cls-5" points="206.38 541.42 206.96 541.42 206.96 542.02 206.96 551.22 200.25 551.22 190.9 541.42 206.38 541.42"/><polygon class="cls-5" points="206.96 553.74 206.96 558.26 202.64 553.74 206.96 553.74"/><polygon class="cls-5" points="203.98 538.9 188.5 538.9 188.5 528.86 194.41 528.86 203.98 538.9"/><path class="cls-7" d="M208.06,581.65c-11.81,0-12.81-10.59-12.81-10.59h25.63S219.88,581.65,208.06,581.65Z"/><rect class="cls-8" x="183.94" y="565.21" width="49.31" height="2.09" rx="0.43"/><rect class="cls-8" x="183.94" y="523.01" width="49.31" height="2.09" rx="0.43"/><path class="cls-9" d="M186,553.74v9.8h-6.45v7.52h57v-7.52h-6.45V528.86h6.45v-7.51h-57v7.51H186v24.88Zm2.5-12.32H207v9.8H188.5Zm0-12.56H207v10H188.5Zm-4.13-3.76a.43.43,0,0,1-.43-.43v-1.23a.43.43,0,0,1,.43-.43h48.45a.43.43,0,0,1,.43.43v1.23a.43.43,0,0,1-.43.43Zm43.37,13.8H209.28v-10h18.46Zm0,12.32H209.28v-9.8h18.46v9.8Zm0,12.32H209.28v-9.8h18.46Zm5.08,1.67a.43.43,0,0,1,.43.43v1.23a.43.43,0,0,1-.43.43H184.37a.43.43,0,0,1-.43-.43v-1.23a.43.43,0,0,1,.43-.43ZM188.5,553.74H207v9.8H188.5Z"/><polygon class="cls-5" points="127.34 551.22 127.34 544.46 133.79 551.22 127.34 551.22"/><polygon class="cls-5" points="130.05 563.54 127.34 560.7 127.34 553.74 136.19 553.74 145.53 563.54 130.05 563.54"/><polygon class="cls-6" points="127.34 538.9 127.34 528.86 132.98 528.86 142.55 538.9 127.34 538.9"/><polygon class="cls-6" points="136.19 553.74 145.79 553.74 145.79 563.54 145.53 563.54 136.19 553.74"/><polygon class="cls-6" points="144.95 541.42 145.79 541.42 145.79 542.31 145.79 551.22 133.79 551.22 127.34 544.46 127.34 541.42 144.95 541.42"/><polygon class="cls-5" points="132.98 528.86 145.79 528.86 145.79 538.9 142.55 538.9 132.98 528.86"/><polygon class="cls-6" points="127.34 563.54 127.34 560.7 130.05 563.54 127.34 563.54"/><polygon class="cls-6" points="118.3 551.22 106.56 551.22 106.56 541.42 108.96 541.42 118.3 551.22"/><polygon class="cls-6" points="125.01 558.26 125.01 563.54 106.56 563.54 106.56 553.74 120.7 553.74 125.01 558.26"/><polygon class="cls-6" points="125.01 528.86 125.01 538.9 122.04 538.9 112.47 528.86 125.01 528.86"/><polygon class="cls-5" points="124.44 541.42 125.01 541.42 125.01 542.02 125.01 551.22 118.3 551.22 108.96 541.42 124.44 541.42"/><polygon class="cls-5" points="125.01 553.74 125.01 558.26 120.7 553.74 125.01 553.74"/><polygon class="cls-5" points="122.04 538.9 106.56 538.9 106.56 528.86 112.47 528.86 122.04 538.9"/><path class="cls-7" d="M126.12,581.65c-11.81,0-12.81-10.59-12.81-10.59h25.62S137.94,581.65,126.12,581.65Z"/><rect class="cls-8" x="102" y="565.21" width="49.31" height="2.09" rx="0.43"/><rect class="cls-8" x="102" y="523.01" width="49.31" height="2.09" rx="0.43"/><path class="cls-9" d="M104.06,553.74v9.8H97.6v7.52h57v-7.52h-6.45V528.86h6.45v-7.51h-57v7.51h6.46v24.88Zm2.5-12.32H125v9.8H106.56Zm0-12.56H125v10H106.56Zm-4.13-3.76a.43.43,0,0,1-.43-.43v-1.23a.43.43,0,0,1,.43-.43h48.45a.43.43,0,0,1,.43.43v1.23a.43.43,0,0,1-.43.43Zm43.36,13.8H127.34v-10h18.45Zm0,12.32H127.34v-9.8h18.45v9.8Zm0,12.32H127.34v-9.8h18.45Zm5.09,1.67a.43.43,0,0,1,.43.43v1.23a.43.43,0,0,1-.43.43H102.43a.43.43,0,0,1-.43-.43v-1.23a.43.43,0,0,1,.43-.43Zm-44.32-11.47H125v9.8H106.56Z"/><polygon class="cls-5" points="44.61 551.22 44.61 544.46 51.06 551.22 44.61 551.22"/><polygon class="cls-5" points="47.32 563.54 44.61 560.7 44.61 553.74 53.46 553.74 62.8 563.54 47.32 563.54"/><polygon class="cls-6" points="44.61 538.9 44.61 528.86 50.25 528.86 59.82 538.9 44.61 538.9"/><polygon class="cls-6" points="53.46 553.74 63.07 553.74 63.07 563.54 62.8 563.54 53.46 553.74"/><polygon class="cls-6" points="62.22 541.42 63.07 541.42 63.07 542.31 63.07 551.22 51.06 551.22 44.61 544.46 44.61 541.42 62.22 541.42"/><polygon class="cls-5" points="50.25 528.86 63.07 528.86 63.07 538.9 59.82 538.9 50.25 528.86"/><polygon class="cls-6" points="44.61 563.54 44.61 560.7 47.32 563.54 44.61 563.54"/><polygon class="cls-6" points="35.58 551.22 23.83 551.22 23.83 541.42 26.23 541.42 35.58 551.22"/><polygon class="cls-6" points="42.29 558.26 42.29 563.54 23.83 563.54 23.83 553.74 37.98 553.74 42.29 558.26"/><polygon class="cls-6" points="42.29 528.86 42.29 538.9 39.31 538.9 29.74 528.86 42.29 528.86"/><polygon class="cls-5" points="41.71 541.42 42.29 541.42 42.29 542.02 42.29 551.22 35.58 551.22 26.23 541.42 41.71 541.42"/><polygon class="cls-5" points="42.29 553.74 42.29 558.26 37.98 553.74 42.29 553.74"/><polygon class="cls-5" points="39.31 538.9 23.83 538.9 23.83 528.86 29.74 528.86 39.31 538.9"/><path class="cls-7" d="M43.39,581.65c-11.81,0-12.81-10.59-12.81-10.59H56.21S55.21,581.65,43.39,581.65Z"/><rect class="cls-8" x="19.27" y="565.21" width="49.31" height="2.09" rx="0.43"/><rect class="cls-8" x="19.27" y="523.01" width="49.31" height="2.09" rx="0.43"/><path class="cls-9" d="M21.33,553.74v9.8H14.88v7.52h57v-7.52H65.46V528.86h6.45v-7.51h-57v7.51h6.45v24.88Zm2.5-12.32H42.29v9.8H23.83Zm0-12.56H42.29v10H23.83ZM19.7,525.1a.43.43,0,0,1-.43-.43v-1.23a.43.43,0,0,1,.43-.43H68.16a.42.42,0,0,1,.42.43v1.23a.42.42,0,0,1-.42.43Zm43.37,13.8H44.61v-10H63.07Zm0,12.32H44.61v-9.8H63.07v9.8Zm0,12.32H44.61v-9.8H63.07Zm5.09,1.67a.42.42,0,0,1,.42.43v1.23a.42.42,0,0,1-.42.43H19.7a.43.43,0,0,1-.43-.43v-1.23a.43.43,0,0,1,.43-.43ZM23.83,553.74H42.29v9.8H23.83Z"/><rect class="cls-8" y="319" width="251.76" height="14.81" transform="translate(251.76 652.81) rotate(-180)"/><rect class="cls-3" x="3.44" y="333.81" width="248.32" height="7.91" transform="translate(255.21 675.53) rotate(-180)"/><rect class="cls-3" x="155.48" y="412.57" width="19.77" height="10.23" rx="1.44"/><rect class="cls-3" x="164.47" y="424.63" width="19.77" height="10.23" rx="1.44"/><rect class="cls-3" x="74.06" y="492.35" width="19.77" height="10.23" rx="1.44"/><rect class="cls-3" x="83.06" y="504.42" width="19.77" height="10.23" rx="1.44"/><rect class="cls-3" x="59.25" y="504.42" width="19.77" height="10.23" rx="1.44"/><path class="cls-10" d="M0,319v14.81H3.44V662.22H253.6V341.72h-1.84V295.27H6.47V319Zm30.1-17.35V319h-17V301.65Zm25.84,0V319H36.74V301.65Zm25.1,0V319H62.59V301.65Zm24.84,0V319H87.69V301.65Zm25,0V319H112.52V301.65Zm24.86,0V319H137.5V301.65Zm24.23,0V319H162.37V301.65Zm21.08,0V319H186.6V301.65Zm24.23,0V319H207.68V301.65ZM245.12,319H231.91V301.65h13.21Z"/><rect class="cls-2" x="276.73" y="475.68" width="152.17" height="142.76"/><rect class="cls-2" x="252.19" y="269.11" width="200.64" height="157.9"/><polygon class="cls-8" points="252.49 235.8 352.51 147.52 352.51 138.92 248.92 230.88 252.49 235.8"/><polygon class="cls-8" points="352.51 124.51 242.98 222.68 245.68 226.4 352.51 131.56 352.51 124.51"/><polygon class="cls-9" points="245.68 226.4 248.92 230.88 352.51 138.92 352.51 131.56 245.68 226.4"/><polygon class="cls-3" points="352.51 147.52 252.49 235.8 252.34 248.77 352.51 160.33 352.51 147.52"/><polygon class="cls-2" points="252.34 248.77 252.19 261.64 352.51 261.64 352.51 160.33 252.34 248.77"/><polygon class="cls-8" points="452.52 235.8 352.51 147.52 352.51 138.92 456.09 230.88 452.52 235.8"/><polygon class="cls-8" points="352.51 124.51 462.03 222.68 459.34 226.4 352.51 131.56 352.51 124.51"/><polygon class="cls-9" points="459.34 226.4 456.09 230.88 352.51 138.92 352.51 131.56 459.34 226.4"/><polygon class="cls-3" points="352.51 147.52 452.52 235.8 452.68 248.77 352.51 160.33 352.51 147.52"/><polygon class="cls-2" points="452.68 248.77 452.83 261.64 352.51 261.64 352.51 160.33 452.68 248.77"/><polygon class="cls-5" points="306.28 387.18 306.28 380.41 299.83 387.18 306.28 387.18"/><polygon class="cls-5" points="303.57 399.5 306.28 396.65 306.28 389.69 297.44 389.69 288.09 399.5 303.57 399.5"/><polygon class="cls-6" points="306.28 374.85 306.28 364.81 300.64 364.81 291.07 374.85 306.28 374.85"/><polygon class="cls-6" points="297.44 389.69 287.83 389.69 287.83 399.5 288.09 399.5 297.44 389.69"/><polygon class="cls-6" points="288.67 377.37 287.83 377.37 287.83 378.26 287.83 387.18 299.83 387.18 306.28 380.41 306.28 377.37 288.67 377.37"/><polygon class="cls-5" points="300.64 364.81 287.83 364.81 287.83 374.85 291.07 374.85 300.64 364.81"/><polygon class="cls-6" points="306.28 399.5 306.28 396.65 303.57 399.5 306.28 399.5"/><polygon class="cls-6" points="315.32 387.18 327.06 387.18 327.06 377.37 324.66 377.37 315.32 387.18"/><polygon class="cls-6" points="308.61 394.21 308.61 399.5 327.06 399.5 327.06 389.69 312.92 389.69 308.61 394.21"/><polygon class="cls-6" points="308.61 364.81 308.61 374.85 311.58 374.85 321.15 364.81 308.61 364.81"/><polygon class="cls-5" points="309.18 377.37 308.61 377.37 308.61 377.97 308.61 387.18 315.32 387.18 324.66 377.37 309.18 377.37"/><polygon class="cls-5" points="308.61 389.69 308.61 394.21 312.92 389.69 308.61 389.69"/><polygon class="cls-5" points="311.58 374.85 327.06 374.85 327.06 364.81 321.15 364.81 311.58 374.85"/><path class="cls-7" d="M307.5,417.6c11.81,0,12.81-10.59,12.81-10.59H294.69S295.68,417.6,307.5,417.6Z"/><rect class="cls-8" x="282.31" y="401.16" width="49.31" height="2.09" rx="0.43"/><rect class="cls-8" x="282.31" y="358.96" width="49.31" height="2.09" rx="0.43"/><path class="cls-9" d="M329.56,387.17V364.81H336V357.3H279v7.51h6.45V399.5H279V407h57V399.5h-6.46V387.17Zm-2.5,0H308.61v-9.8h18.45Zm0-12.32H308.61v-10h18.45Zm-44.32-13.79a.43.43,0,0,1-.43-.43v-1.24a.43.43,0,0,1,.43-.43h48.45a.43.43,0,0,1,.43.43v1.24a.43.43,0,0,1-.43.43Zm5.09,3.75h18.45v10H287.83Zm0,13.45v-.89h18.45v9.8H287.83Zm0,11.43h18.45v9.81H287.83Zm43.36,11.47a.43.43,0,0,1,.43.43v1.23a.43.43,0,0,1-.43.43H282.74a.43.43,0,0,1-.43-.43v-1.23a.43.43,0,0,1,.43-.43Zm-4.13-1.66H308.61v-9.81h18.45Z"/><polygon class="cls-5" points="306.28 308.68 306.28 301.92 299.83 308.68 306.28 308.68"/><polygon class="cls-5" points="303.57 321 306.28 318.16 306.28 311.2 297.44 311.2 288.09 321 303.57 321"/><polygon class="cls-6" points="306.28 296.36 306.28 286.32 300.64 286.32 291.07 296.36 306.28 296.36"/><polygon class="cls-6" points="297.44 311.2 287.83 311.2 287.83 321 288.09 321 297.44 311.2"/><polygon class="cls-6" points="288.67 298.88 287.83 298.88 287.83 299.76 287.83 308.68 299.83 308.68 306.28 301.92 306.28 298.88 288.67 298.88"/><polygon class="cls-5" points="300.64 286.32 287.83 286.32 287.83 296.36 291.07 296.36 300.64 286.32"/><polygon class="cls-6" points="306.28 321 306.28 318.16 303.57 321 306.28 321"/><polygon class="cls-6" points="315.32 308.68 327.06 308.68 327.06 298.88 324.66 298.88 315.32 308.68"/><polygon class="cls-6" points="308.61 315.72 308.61 321 327.06 321 327.06 311.2 312.92 311.2 308.61 315.72"/><polygon class="cls-6" points="308.61 286.32 308.61 296.36 311.58 296.36 321.15 286.32 308.61 286.32"/><polygon class="cls-5" points="309.18 298.88 308.61 298.88 308.61 299.48 308.61 308.68 315.32 308.68 324.66 298.88 309.18 298.88"/><polygon class="cls-5" points="308.61 311.2 308.61 315.72 312.92 311.2 308.61 311.2"/><polygon class="cls-5" points="311.58 296.36 327.06 296.36 327.06 286.32 321.15 286.32 311.58 296.36"/><path class="cls-7" d="M307.5,339.1c11.81,0,12.81-10.58,12.81-10.58H294.69S295.68,339.1,307.5,339.1Z"/><rect class="cls-8" x="282.31" y="322.67" width="49.31" height="2.09" rx="0.43"/><rect class="cls-8" x="282.31" y="280.47" width="49.31" height="2.09" rx="0.43"/><path class="cls-9" d="M329.56,308.68V286.32H336V278.8H279v7.52h6.45V321H279v7.52h57V321h-6.46V308.68Zm-2.5,0H308.61v-9.8h18.45Zm0-12.32H308.61v-10h18.45Zm-44.32-13.8a.43.43,0,0,1-.43-.43V280.9a.43.43,0,0,1,.43-.43h48.45a.43.43,0,0,1,.43.43v1.23a.43.43,0,0,1-.43.43Zm5.09,3.76h18.45v10H287.83Zm0,13.44v-.88h18.45v9.8H287.83Zm0,11.44h18.45V321H287.83Zm43.36,11.47a.43.43,0,0,1,.43.43v1.23a.43.43,0,0,1-.43.43H282.74a.43.43,0,0,1-.43-.43V323.1a.43.43,0,0,1,.43-.43ZM327.06,321H308.61v-9.8h18.45Z"/><polygon class="cls-5" points="397.35 387.18 397.35 380.41 390.9 387.18 397.35 387.18"/><polygon class="cls-5" points="394.64 399.5 397.35 396.65 397.35 389.69 388.5 389.69 379.16 399.5 394.64 399.5"/><polygon class="cls-6" points="397.35 374.85 397.35 364.81 391.71 364.81 382.14 374.85 397.35 374.85"/><polygon class="cls-6" points="388.5 389.69 378.89 389.69 378.89 399.5 379.16 399.5 388.5 389.69"/><polygon class="cls-6" points="379.74 377.37 378.89 377.37 378.89 378.26 378.89 387.18 390.9 387.18 397.35 380.41 397.35 377.37 379.74 377.37"/><polygon class="cls-5" points="391.71 364.81 378.89 364.81 378.89 374.85 382.14 374.85 391.71 364.81"/><polygon class="cls-6" points="397.35 399.5 397.35 396.65 394.64 399.5 397.35 399.5"/><polygon class="cls-6" points="406.38 387.18 418.13 387.18 418.13 377.37 415.73 377.37 406.38 387.18"/><polygon class="cls-6" points="399.68 394.21 399.68 399.5 418.13 399.5 418.13 389.69 403.99 389.69 399.68 394.21"/><polygon class="cls-6" points="399.68 364.81 399.68 374.85 402.65 374.85 412.22 364.81 399.68 364.81"/><polygon class="cls-5" points="400.25 377.37 399.68 377.37 399.68 377.97 399.68 387.18 406.38 387.18 415.73 377.37 400.25 377.37"/><polygon class="cls-5" points="399.68 389.69 399.68 394.21 403.99 389.69 399.68 389.69"/><polygon class="cls-5" points="402.65 374.85 418.13 374.85 418.13 364.81 412.22 364.81 402.65 374.85"/><path class="cls-7" d="M398.57,417.6c11.81,0,12.81-10.59,12.81-10.59H385.75S386.75,417.6,398.57,417.6Z"/><rect class="cls-8" x="373.38" y="401.16" width="49.31" height="2.09" rx="0.43"/><rect class="cls-8" x="373.38" y="358.96" width="49.31" height="2.09" rx="0.43"/><path class="cls-9" d="M420.63,387.17V364.81h6.45V357.3h-57v7.51h6.45V399.5h-6.45V407h57V399.5h-6.45V387.17Zm-2.5,0H399.67v-9.8h18.46Zm0-12.32H399.67v-10h18.46Zm-44.32-13.79a.43.43,0,0,1-.43-.43v-1.24a.43.43,0,0,1,.43-.43h48.45a.44.44,0,0,1,.43.43v1.24a.44.44,0,0,1-.43.43Zm5.08,3.75h18.46v10H378.89Zm0,13.45v-.89h18.46v9.8H378.89Zm0,11.43h18.46v9.81H378.89Zm43.37,11.47a.43.43,0,0,1,.43.43v1.23a.43.43,0,0,1-.43.43H373.81a.43.43,0,0,1-.43-.43v-1.23a.43.43,0,0,1,.43-.43Zm-4.13-1.66H399.67v-9.81h18.46Z"/><polygon class="cls-5" points="397.35 308.68 397.35 301.92 390.9 308.68 397.35 308.68"/><polygon class="cls-5" points="394.64 321 397.35 318.16 397.35 311.2 388.5 311.2 379.16 321 394.64 321"/><polygon class="cls-6" points="397.35 296.36 397.35 286.32 391.71 286.32 382.14 296.36 397.35 296.36"/><polygon class="cls-6" points="388.5 311.2 378.89 311.2 378.89 321 379.16 321 388.5 311.2"/><polygon class="cls-6" points="379.74 298.88 378.89 298.88 378.89 299.76 378.89 308.68 390.9 308.68 397.35 301.92 397.35 298.88 379.74 298.88"/><polygon class="cls-5" points="391.71 286.32 378.89 286.32 378.89 296.36 382.14 296.36 391.71 286.32"/><polygon class="cls-6" points="397.35 321 397.35 318.16 394.64 321 397.35 321"/><polygon class="cls-6" points="406.38 308.68 418.13 308.68 418.13 298.88 415.73 298.88 406.38 308.68"/><polygon class="cls-6" points="399.68 315.72 399.68 321 418.13 321 418.13 311.2 403.99 311.2 399.68 315.72"/><polygon class="cls-6" points="399.68 286.32 399.68 296.36 402.65 296.36 412.22 286.32 399.68 286.32"/><polygon class="cls-5" points="400.25 298.88 399.68 298.88 399.68 299.48 399.68 308.68 406.38 308.68 415.73 298.88 400.25 298.88"/><polygon class="cls-5" points="399.68 311.2 399.68 315.72 403.99 311.2 399.68 311.2"/><polygon class="cls-5" points="402.65 296.36 418.13 296.36 418.13 286.32 412.22 286.32 402.65 296.36"/><path class="cls-7" d="M398.57,339.1c11.81,0,12.81-10.58,12.81-10.58H385.75S386.75,339.1,398.57,339.1Z"/><rect class="cls-8" x="373.38" y="322.67" width="49.31" height="2.09" rx="0.43"/><rect class="cls-8" x="373.38" y="280.47" width="49.31" height="2.09" rx="0.43"/><path class="cls-9" d="M420.63,308.68V286.32h6.45V278.8h-57v7.52h6.45V321h-6.45v7.52h57V321h-6.45V308.68Zm-2.5,0H399.67v-9.8h18.46Zm0-12.32H399.67v-10h18.46Zm-44.32-13.8a.43.43,0,0,1-.43-.43V280.9a.43.43,0,0,1,.43-.43h48.45a.43.43,0,0,1,.43.43v1.23a.43.43,0,0,1-.43.43Zm5.08,3.76h18.46v10H378.89Zm0,13.44v-.88h18.46v9.8H378.89Zm0,11.44h18.46V321H378.89Zm43.37,11.47a.43.43,0,0,1,.43.43v1.23a.43.43,0,0,1-.43.43H373.81a.43.43,0,0,1-.43-.43V323.1a.43.43,0,0,1,.43-.43ZM418.13,321H399.67v-9.8h18.46Z"/><path class="cls-8" d="M379.19,211.13a27,27,0,0,0-26.68-23.45,26.31,26.31,0,0,0-3.79.3,27.12,27.12,0,0,0-23.14,26.63,27.9,27.9,0,0,0,.22,3.32,26.92,26.92,0,0,0,22.92,23.31,26.31,26.31,0,0,0,3.79.3,27.18,27.18,0,0,0,3-.18,26.9,26.9,0,0,0,23.69-23.43,26,26,0,0,0,.23-3.32A26.64,26.64,0,0,0,379.19,211.13Zm-28.61,27.13a26.3,26.3,0,0,1-21.32-21.92h21.32Zm0-25.16H329.26a26.28,26.28,0,0,1,21.32-21.91Zm3.85,25.16V216.34h21.32A26.31,26.31,0,0,1,354.43,238.26Zm0-25.16V191.19a26.29,26.29,0,0,1,21.32,21.91Z"/><path class="cls-6" d="M329.26,213.1h21.32V191.19A26.28,26.28,0,0,0,329.26,213.1Z"/><path class="cls-6" d="M354.43,191.19V213.1h21.32A26.29,26.29,0,0,0,354.43,191.19Z"/><path class="cls-6" d="M354.43,238.26a26.31,26.31,0,0,0,21.32-21.92H354.43Z"/><path class="cls-6" d="M350.58,238.26V216.34H329.26A26.3,26.3,0,0,0,350.58,238.26Z"/><rect class="cls-8" x="252.19" y="261.64" width="200.64" height="7.47"/><rect class="cls-8" x="242.67" y="423.71" width="219.68" height="42.15"/><rect class="cls-9" x="249.58" y="429.24" width="205.86" height="31.09"/><rect class="cls-8" x="252.19" y="465.87" width="24.54" height="126.35"/><rect class="cls-9" x="252.19" y="465.87" width="24.54" height="9.82"/><rect class="cls-8" x="246.87" y="592.21" width="35.44" height="11.51"/><rect class="cls-9" x="252.19" y="582.4" width="24.54" height="9.82"/><rect class="cls-9" x="241.91" y="603.72" width="45.36" height="14.73" transform="translate(529.18 1222.17) rotate(180)"/><path class="cls-7" d="M356.55,499.77h-10.1s-24.89-.77-24.89,29.39v89.29h59.88V529.16C381.44,499,356.55,499.77,356.55,499.77Z"/><path class="cls-11" d="M349.64,618.45v-115S325,502.75,325,532v86.49Z"/><path class="cls-11" d="M353.45,618.45v-115s24.69-.75,24.69,28.46v86.49Z"/><rect class="cls-3" x="276.73" y="465.87" width="152.17" height="9.82"/><rect class="cls-8" x="426.45" y="465.87" width="24.54" height="126.35"/><rect class="cls-9" x="426.45" y="465.87" width="24.54" height="9.82"/><rect class="cls-8" x="421.13" y="592.21" width="35.44" height="11.51"/><rect class="cls-9" x="426.45" y="582.4" width="24.54" height="9.82"/><rect class="cls-9" x="416.17" y="603.72" width="45.36" height="14.73" transform="translate(877.7 1222.17) rotate(180)"/><rect class="cls-8" x="236.73" y="615.56" width="230.24" height="15.55"/><rect class="cls-9" x="221.73" y="631.11" width="260.45" height="15.55"/><rect class="cls-7" x="206.36" y="646.66" width="290.16" height="15.55"/><rect class="cls-3" x="335.26" y="336.91" width="19.77" height="10.23" rx="1.44"/><rect class="cls-3" x="344.25" y="348.98" width="19.77" height="10.23" rx="1.44"/><rect class="cls-3" x="295.82" y="497.06" width="19.77" height="10.23" rx="1.44"/><rect class="cls-3" x="286.82" y="484.99" width="19.77" height="10.23" rx="1.44"/><rect class="cls-3" x="310.63" y="484.99" width="19.77" height="10.23" rx="1.44"/><rect class="cls-3" x="395.69" y="230.4" width="19.77" height="10.23" rx="1.44"/><rect class="cls-3" x="404.69" y="242.46" width="19.77" height="10.23" rx="1.44"/><rect class="cls-3" x="380.88" y="242.46" width="19.77" height="10.23" rx="1.44"/><text class="cls-12" transform="translate(266.66 454.64)">UNIVERSI<tspan class="cls-13" x="139.98" y="0">T</tspan><tspan x="158.64" y="0">Y</tspan></text></g></g></svg>